<?xml version="1.0" encoding="utf-8"?>
<!-- Generator: Adobe Illustrator 22.0.1, SVG Export Plug-In . SVG Version: 6.00 Build 0)  -->
<svg version="1.0" id="katman_1" xmlns="http://www.w3.org/2000/svg" xmlns:xlink="http://www.w3.org/1999/xlink" x="0px" y="0px"
	 viewBox="0 0 900 675" style="enable-background:new 0 0 900 675;" xml:space="preserve">
<style type="text/css">
	.st0{fill-rule:evenodd;clip-rule:evenodd;fill:#1D1D1B;}
</style>
<g>
	<path class="st0" d="M417.3,104.6c-2.1,2.6-7.4,1.4-10.6,1C409.9,104.3,413.7,104.6,417.3,104.6L417.3,104.6z M460.6,109.1l0.5-0.5
		c0.5,0.3,0.8,1.2,1.5,1l0.5-0.5l2.5,2l-0.5,0.5c0.8,1.5,3.4-1,2,1.5l0.5,0.5l2-2.5l-1.5-1c3.2,0.1,5.3,5.1,9.1,6.5
		c-0.2,0.4,0.2,0.7,0.5,1l1-1c1.3,1.8,4.3,5.4,6,7.5l-0.5,0.5l-2.5-2l-1,3l-2-2.5c-0.3,0.3-0.6,0.7-1,0.5c-0.3-0.3-0.7-0.6-0.5-1
		l1-1c-0.8-3.1-4.4-3.7-5.5-6.5c-1.8,0.7-2-1.1-2.5-2c-0.9,0.8-1.6,1.9-3,1.5c-0.2-0.5,0.2-0.8,0.5-1c-0.3-0.3-0.6-0.7-1-0.5l-1,1
		l-0.5-2.5l-2,1.5c-1.3-3.9-1.8-1.3-4-3l0.5-0.5c-2.4,0.8-4.7-2.6-6.5-3.5C456.2,107,457.9,106.9,460.6,109.1L460.6,109.1z
		 M448,108.6c-0.3,0.6-0.9,0.4-1.5,0.5v-1C447,108.1,447.7,107.9,448,108.6L448,108.6z M422.8,112.1c-1.2-1.5-3-1.3-4.5-2
		c8.1-1.1,17.8,3.1,21.6,8c2-0.4,3,1.3,4.5,2l-1,1c1.4,0.2,2.7,1.8,4,0.5c1.9,2.2,3.7-0.2,5.6,2l1-1c-2.8-1.2-4.9-3.9-7.6-5
		l-0.5,0.5c-0.8-2.8-5.3-4.4-7.5-7.5l0.5-0.5c4.9,2.9,8.7,6.4,13.2,9.6c1.7,0,5.4-0.5,6,2.5l-3.5,0.5c-0.6,1.3,1,1.7,1.5,2.5
		l0.5-0.5c0.5,0.7,1.5,1.1,1.5,2l-0.5,0.5l-1-1l-1.5,1.5c1.3,2.3,4.1,2.8,6,2.5c-2.1,0.4-1.2,1.8-1,3c0.1,1.3,2.3,1.8,1.5,3.5
		l2.5,2.5l0.5-0.5c0,1.6,1.3,4.4,3,5.5l1-1l-1.5-1l1-1l-1.5-1c3.2-0.6,1,1.8,3,3l-1,1l0.5,0.5l-1.5,1c2.9,0.4-0.1,3.5,3,4
		c0.8,1.8,0,5,3,5v1c-0.5,0.2-0.8-0.2-1-0.5c-0.7,0.3-0.5,0.9-0.5,1.5c0.9,0.3,3.2,0.5,4-1v-3.5c2.9,5,0.6,11.6,2,16.1h-1
		c-0.3-1.6,0.9-4.7-0.5-6l0.5-0.5c-0.3-0.9-1.3-0.3-2-0.5l-1,2l1.5,1c-1.2,3.1-1.5,2.4-4,4.5c1.8,0.9,0.5,2.3,0.5,3.5h-1
		c-1.3-1.8,0.5-3.5-2.5-3.5l-0.5,0.5l1.5,1.5l-1,1l2,1.5l-2,1c2.6,1.1-1.7,2.5,0.5,4l-2,0.5l0.5,0.5c-0.3,0.7-1,0.5-1.5,0.5
		l-0.5-0.5l1.5-1c-2.6-2.2,0.8-1.3,1-3.5c-0.6-0.5-1.1-1.3-2-1l-0.5,1.5l0.5-0.5c-0.4-0.9-1.4-0.3-2-0.5c-1.4,0.8,0.3,1.7,0.5,2
		l-3,1c0.8,0.3,0.3,1.3,0.5,2l-3.5,2.5l1.5,2l-1.5,1c0.9-1.3-2.3-1.1-0.5-2.5c-1-1.3-2,0.3-3,0.5c-1.7-0.7-0.8-3.4-3-3l-0.5,0.5
		c-0.3-0.7-0.2-1.8-1.5-2l-1,1c3,1.8,2.3,5.4,4.5,7c-1.7,4,1.8,9,0,14.1l-1-5.5c-1.7-0.4-1-4.6-2.5-6.5l-5.1-0.5l0.5-0.5
		c-0.5-0.6-1.3-1.1-1-2l1-1c-0.9-0.5-2.7-0.8-2-2.5l1.5-1c-3.5,0.3-1.3-4.2-3-5l-1,1l-1.5-1.5l0.5-0.5c-0.5-0.8-2-1.2-1.5-2.5
		l0.5-0.5l-2-2l-1.5,1.5c-0.1-1.5-1.6-1.8-2-3c-0.5,0-1.2-0.1-1.5,0.5c-0.6,1.3,1,1.4,1.5,2c-0.5,0.3-0.8,1.2-1.5,1
		c1.2-2.3-2.6-4.8-1.5-7.5l-2-1c0.9-1.5,1.6,0.7,2.5,0.5l0.5,1.5c2.6-1,4.3,3,7,3c4.4,2.1,6.7,6.7,10.1,10.1l2.5-0.5
		c1.3-2.1-2.6-2.6-3.6-2.5l0.5-0.5c-5.6-8.1-15.7-12.1-24.1-16.6v-2c1.8,0.7,3.9,2.3,5.5,2c-2.2-1.4-1-4.7-3.5-5.5
		c-0.2,0.2-0.5,0.7-1,0.5l-0.5-0.5c1.1-0.1,2.2-1.7,1-2.5c-0.5-1.8-2.3-1.8-3-3.5c1.8-1.3-1.2-1.8-1-3c-4.1-2.9-10.1-2.3-13.1-7
		c-0.3,0.2-0.7,0.5-0.5,1l1,1l0.5-0.5l0.5,0.5c-0.5,0.8-4.4,1.3-2.5,3.5c-0.3,0.9,0.5,1.4,1,2l-0.5,0.5l2,1l-0.5,0.5l1,1l-0.5,0.5
		c2.3,0.4,2.8,3,4.5,4l-0.5,0.5c-0.9-2-4.7-2.4-4.5-5c-0.3-0.8-1.7-0.3-1.5-1.5l0.5-0.5l-4.5-3c0.7-0.3,0.5-0.9,0.5-1.5
		c-0.7-1.4-1.7,0.4-2,0.5l0.5-2l-2.5-1l0.5-0.5c-3.1-0.8-4.2-7-8-5.5l2,2.5l-0.5,0.5c2.8,1.2,4.8,4.4,6,7c-0.7,2.8-2.8-1.3-3,1.5
		c1.2,0.8,2.8,0.4,4,1l-0.5,0.5l0.5,0.5h-1.5l0.5-0.5c-1.3-1.7-3.1,1.3-3.5-1.5l-1,1.5c-2.1,0.4-2.9-3.9-5-2c2.4,2.8,3.4,2.9,5.5,5
		c-0.3,0.9-1.8-0.2-2.5-1c-2.5,2.5,2.5,4.4,1.5,7.5l1.5,1.5c-2.9,0.8-4.1-4.8-7-5.5c0.4,1.8,0.4,3.4,0.5,5.5l-5-4
		c-0.3,1.8,2.3,4.3,2,6l-4-3.5c-1,1,0.3,2.8,1.5,3c-0.5,0.6-1.3,1.1-1,2l1,1c-0.3,0.7-0.9,0.5-1.5,0.5c-1.2-1-2.1-2.5-3.5-3
		c-1,1.8,2,3,3,4.5c-2.3,1.5-4.3-2.8-6.5-1.5c1.2,1.3,1.6,3.4,3.5,4c-0.7,0.8-1.3-0.3-2,1c-1.4-2.3-3.7-2.3-5.5-3.5
		c-0.5,2.9-3,1.2-4.5,2c1.3,2.3-0.9,4.5,2.5,5.5c-4.2,2-7.7-1.7-11.1,1c0.8,2.3,2-0.5,3,1c1.3,0.2,2.3,1.6,3.5,2
		c-2.1-0.4-4.5-0.1-7,0.5c-0.2,0.3-0.7,0.6-0.5,1c0.5,1,1.4-0.2,2-0.5c0.6,0.3,0.5,0.9,0.5,1.5c-0.5,0.2-0.8-0.2-1-0.5l-1,1l1,1
		l-7,1c2.2,1,5.9,2,6.5,3c-0.8,0.6-1.9,0.2-2.5,1l1,1c-0.3,0.3-0.5,0.7-1,0.5c0.4-4.4-3.7-1.3-5.5-2c-0.8-0.2-1,0.7-1.5,1
		c1.5,2.4,3.4-0.4,5.5,0.5l-2.5,1.5l0.5,0.5c-1,2.4-3.8-1-3,2.5l2.5,0.5c-0.7,0.3-0.5,0.9-0.5,1.5l-3.5,0.5l1.5,1
		c-2.3,1.4-4.9,1.3-7.5,2.5v1.5c-0.5,0.2-0.8-0.2-1-0.5c-0.3,0.5-1.2,0.8-1,1.5c1.1,0,5.4,1,4.5-1.5c-0.8,0.8,1.7,2.4,1.5,4
		c-2.2,1.4-5.9-0.9-7.5,2l1,1c-0.9,1.5-3.8,1.2-4.5,3c2.5,0.3,5.7-2.5,8.5-1.5l-2,1l1.5,1l-2,2l0.5,0.5c-0.9,0.3-1.6,1.4-2.5,1.5
		c-0.2-0.7,0.7-1,1-1.5c-1-1.3-2,0.4-3,0.5c-0.1,2.2-2.5,2.9-4,3.5l0.5,0.5c0.2,0.3-1.7,0.2-1,1.5c0.3,0.9,1.3,0.4,2,0.5l2-2l1,1
		c0.1-1.4,1.5-2.8,3-3c1.3-0.1,2.8,0.1,3,1.5c-1.2,2.7-2.8-0.8-4,0.5c0.5,0.7,1.3,1.1,1,2c-0.3,0.7-0.9,0.5-1.5,0.5
		c0.3-0.9-0.5-1.3-1-2c-0.3,1-1.6,1.8,0,2.5c-0.6,0.8-1.5,0.7-2,1.5l-1-1c-2.8,1.6-0.3,4.3-2.5,6.5l3,2c-1,0.4-1.8,1.3-2.5,2.1
		l-1-1.1c-2,3.5,3.3,3,4,5.6c-0.4,0.8-1.8,0.3-1.5,1.5l2.5,0.5c-1.4,0.8-1.3,2.4-2,3.5l2,0.5l-3.5,6c2.3,0.8,3-2.7,4.5-4
		c1.1,2.8-4.3,4.7-3,7.5l2.5-3c1.5,1.2-3,4.9,0,5c-1.6,1.5,1.1,2.9-1.5,4c0,0.8-0.3,3,1,4c2.2-1.6-0.3-5.2,2.5-6.5l-0.5-0.5l0.5-0.5
		c0.9,1-1.9,2.9,0.5,4c-0.2,2.5-1.8,5-0.5,7.5l1.5,0.5c-3.3,2.3,0.2,5.7-3,8l0.5,0.5c-1.6,0.8-0.3,1.5,0,2.5
		c3.4-0.2-0.4-3.3,2.5-4.5c0.9,0.1,0.3,1.7,0.5,2.5l-2,2c0.9,0.3,0.3,1.3,0.5,2l-1.5,1.5c1.6,1.2-0.8,0.7-0.5,2
		c-0.9,1.7-0.3,4.6-0.5,6c4.7-0.5-1-4.8,3-5.5c-0.5,0.4,1.3,4.4-1.5,4.5l1,4l1-1c-0.3-0.3-0.7-0.5-0.5-1c1.2,2.8,2.2,2.6-0.5,5.5
		l-1-2l-1,1.5c-1.3-2.4,1.5-4.4-1-6.5c0.2,2.7-2.2,3.5-4,4.5c0.2-0.5-0.3-0.8-0.5-1c-1,0.2-1.6,1.2-2.5,1.5c1.8,0.3,2.8,1.3,3,3
		l-1.5,1c1.3,0.2,2.7,1.8,4,0.5v1.5c-0.8,0.1-1.5-1.2-2,0c0.4,2.9,3.5,4.8,4.5,7.5l1.5-1.5l0.5,2.5c1.3-0.1,2.4-2.4,1.5-2
		c0.3,0.5,1.2,0.8,1,1.5c-1.6,0.8-0.3,1.5,0,2.5l0.5,0.5l-1.5,2c0.6,0.5,1.1,1.3,2,1l0.5-1.5c0.9,0.3,0.3,1.3,0.5,2
		c-0.9,0-1.3,1-2,1.5c-0.1,1.7,1-0.1,1.5,1l-1,1l-3.5-4l1-1c-2.9,0.6-4.4-3.8-6.5-5c-0.2-4.2-3.9-5.9-5.5-9.6c0.2-0.9-0.5-1.4-1-2
		l0.5-0.5c-2.1-1.1-2.2-3.9-4-5.5l0.5-0.5c-0.5-0.7-1.6-1.2-1.5-2l0.5-0.5c-1.1-1-2.4,0.2-3.5,0.5v0.5c-2.2-1.4-3.9-4.9-5-7.5
		c0.3-0.7,0.9-0.5,1.5-0.5c0.9,2.6,4.3,2.8,5,6c1.5-2.7-2-4.3-1.5-6l1.5-0.5l-1.5-5l-1.5,1c1.6,0.9,1.1,2.2,0.5,3
		c-0.9-1.3-1.1-3.9,0.5-5c0-0.6-0.2-1.2,0.5-1.5c0.9,2,3.2,2,3.5,4.5c0.9-1.1,0.3-2.7,0.5-4c-1.1-0.7-2.5-0.7-3.5-1.5
		c2.8-1.5-1.2-2.8-0.5-4.5c0.6-2.2,1.2-3.7-0.5-5.5l1-1c-0.9-1.1-1.3-3-0.5-4.5c-0.7-0.8-1.5-0.7-2-1.5l-0.5,5l-0.5-0.5
		c-0.4,0.5-1.3,0.8-1,1.5c4-0.8,0.5,3.7,3,5.5c-1.3,0.8-2-0.2-3,1.5l1,1c-0.4,0.5-1.3,0.8-1,1.5l0.5,0.5c-0.5,0.3-0.8,1.2-1.5,1
		l-0.5-0.5l1.5-1c-0.4-0.5-1.3-0.8-1-1.5l1-1c-0.3-0.3-0.6-0.7-1-0.5l-1,1c1.1-1.8-2.3-4,0-5.5l-1.5-1.5c1.8-1.1,0.6-3.4,1-5
		c-0.6-0.6-1.3-1.1-1-2l3-1.5l-2.5-1c0.1-0.3,1.8-1.3,0.5-2h-0.5c2.8-2.3-0.8-8.5,2-12.6c-0.1-0.6,0.1-1.3-0.5-1.5l-2,2l0.5,0.5
		l-0.5,0.5l-0.5-0.5l1-1c-0.3-0.3-0.7-0.6-0.5-1l2-0.5c-3-4.4,0.5-10.6,1.5-15.7c2.4-2.4,2.4-6.3,5.5-8l0.5,2c0.3-0.2,0.5-0.7,1-0.5
		c0.3,0.3,0.7,0.6,0.5,1c-1,0.3-1.4-0.4-2-1c-0.3,1.5-1.7,3.3-1,4.5c1-0.8,1.8-2.2,3-2.5c0.5,2.4,3.2,4.6,2,7
		c-2,0.4-2.6,0.9-4.5,1.5l3,1c-1,2.3-3.9,1.5-5.5,3c0.3,0.9,1.3,0.4,2,0.5c0.4,2.5-1.2,0.1-2,1.5l1.5,1.5l-1,1.1
		c2.8,0.8,3.4-3.9,4.5-5.1l1.5-1.5l0.5,0.5c-1.1,0.7-1,1.7-1.5,2.5c0.8,1,2-1.5,3,0l-3,3c-0.1-0.5,0.1-1.2-0.5-1.5
		c-0.8,4-7.3,2.9-4.5,7.1l1.5-3c0.2,1.9-0.3,3.6-1.5,5l0.5,0.5l-1,1c1.2,1.1,0,2.4-0.5,3.5l0.5,6c2.8-3.4,0.2-7.8,3.5-10.6l-1.5-0.5
		c2-1.3,3.9-1.4,4.5-4c0.7-1.8,2.2-2.5,4-3.6l0.5,0.6c2.7-0.9,1.8-2.8,2-4.6c-0.9-2.5-3.3-0.6-5-0.5l2-1.5l-3-1
		c0.9-0.3,1.7-1.2,2.5-2c0.8-5.9-5.3-8.3-4.5-13.6c-3.7-6-1.3-11.4-2-18.1c-0.4-4.4,4.4-10.8,2-14.1c0.7-0.6,0.7-1.5,1.5-2l2.5-0.5
		l-0.5-0.5c1.3-1.1,2.9-1.5,4.5-2c-0.7-0.8-0.6-1.8,0.5-2.5c0.4,1.5,2.1,2.7,3.5,1.5c1.7-0.5,4.1-2.8,5,0c2.3-1.3,6,0.5,8-1.5
		c1.6-0.4,3.4-0.1,5.5,0.5v-2c-2.8-0.2-9,0.4-12.1-0.5l-0.5-0.5c1.4-2.1,4.1-0.9,5.5-3c-2.6,0.3-5.2-1-7.5,1.5l-0.5,1.5v-0.5
		c-2.5-1.3-3.6,1.9-5,3.5c-0.9-0.3-0.3-1.3-0.5-2c1.1-0.1,2.2-1.7,1-2.5l-0.5-0.5c7.2-1.3,15.1-5.5,22.6-6c0.5-0.7,2.1-0.7,1.5-2
		c1.7,0.5,4.8-1.3,5,1.5l2-2.5c0.3,0.6,0.9,0.5,1.5,0.5l0.5-0.5c-1.1-2.3-4.2,0.3-5-2.5c-2.4,1.3-4.2-1.8-6.5,1c-1.3,0.4-2-0.7-3-1
		c2.6-2.2,5.2,0.3,7.5-2.5l-2.5-1.5c3.7-0.2,5.9-3.2,10.1-0.5l0.5-0.5c-1.7-3.5-6-2.8-8.6-5c3-1.5,6.8-0.5,9.6-1.5l-4-2.5
		c3.8,0.5,8.7-1.3,12.6,1.5l0.5-0.5c1.5,1.1,2.4,2,4,1.5l1,1l1-1c-1.3-2.4-5.1-0.7-5-4c-0.6-0.8-1.8-0.4-2.5-1v-1
		c1.1,1.2,2.5,0,3.5-0.5c-1.1-0.6-2.2-0.9-3-2c3.7-0.4,6.5-0.3,9,3.5l-1.5,1c2.6,0.1,2.9,3.9,5.5,2.5c-1.6-2.1-0.3-4.4-3.5-5.5
		l1.5-1c-3.3-3.1-7.9-5.4-13.1-5c-4.2,0.9-9.7,0.3-13.6,0.5c1.3-2.2,5.6,0.2,7.5-2c1.8,2.3,4.4-2.7,6.5,0.5c1.2-1.1,2.7-1.2,4-0.5
		c1.7,2.6,4-0.8,6,1c1.7,0.7,3.4,2.8,5,2l-1.5-1.5c1-0.8,4.1-0.7,5.5,0.5c0.9,0.8,1.6,1.9,3,1.5l7,7l-0.5,0.5
		c2.7,0.8,2.8,4.2,5.5,1.5l-1.5-1.5l0.5-0.5c-0.9-1.8-4.6-2.5-2-4.5c3.4-0.7-0.8,2.6,2.5,2l-1.5,1c0.3,0.9,1.3,0.3,2,0.5
		c1,2.7,5.9,4,4.5,7.5c0.6,0.9,1.7,0.3,2.5,0.5l1-1c-2.6-4.9-7.3-8.9-9.5-13.6c-0.9-1.2-2-1.8-3.5-1.5l-0.5,0.5l2,2.5l-1.5,1.5
		c-0.6-2.6-2.8-3.2-4-5.5l-1,1.5l-0.5-3.5c-2.5,0.8-2.1-2.3-4-3l-7.5-1.5c2.7-1.6,5.7-0.9,9.1-2.5c0.1,0.8-1,1.3-1.5,2
		c0.6,0.9,1.5,1.1,2.5,1c1.6-3.6,5.4,1.3,7.5-1c-2.3-1.7-5.9-2.6-7-5c5.9,0.6,10.5-3.4,16.6-0.5
		C417.5,111.9,420.6,112.4,422.8,112.1L422.8,112.1z M478.7,115.1c-0.3,0.2-0.6,0.7-1,0.5l-1-1l0.5-0.5l-2-1.5l0.5-0.5L478.7,115.1
		L478.7,115.1z M421.8,117.6c-4.5,0-10.6-1.5-15.1-4.5l-4-0.5C410.2,111.6,415.7,115.4,421.8,117.6L421.8,117.6z M460.1,114.1
		l0.5,0.5h-3.5v-1C458.1,113.8,459.1,115.5,460.1,114.1L460.1,114.1z M377.6,116.1c-2.3,2.6-6.5,2.4-9,3
		C371.3,117.6,374.8,116.1,377.6,116.1L377.6,116.1z M438.9,117.6l-7.5-0.5C433.9,115.5,436.6,115.6,438.9,117.6L438.9,117.6z
		 M409.8,118.6l-4-2l3.5,1.5L409.8,118.6L409.8,118.6z M468.7,120.7l1-1c3.5,2.4,7,6.5,10.1,10.1l0.5-0.5c0.3,0.5,1.2,0.8,1,1.5
		l-0.5,0.5c1.3,0.3,2.3,1.4,4,1c0.9-0.6-0.2-1.4-0.5-2h-1l1-1c-0.5-1-2.3,0-2-1.5l0.5-0.5c-0.3-0.3-0.6-0.7-1-0.5
		c-0.2-0.5,0.2-0.8,0.5-1h1c0.2,0.4-0.3,0.7-0.5,1c0.3,0.6,0.9,0.4,1.5,0.5c-0.3,2.1,2.4,3.9,1,5l-1.5,1c0.8,0.3,1.3,1.4,2.5,1
		c-2.6,2.6,3.4,1.7,1,4c-2.6-1.3-1.7-3.4-4.5-4l0.5-0.5c-3.4,0.1-5.7-4-9.1-4c2.4,2.7,5.8,5.5,9.1,7.5c-1.4,3.6,5,5.3,3.5,9.6l1,1
		c-1.3,1-2.7-1-4-1.5c-0.4-1.5-2.5-3.1-4-4c-0.9,2.3,2.8,4.5,1.5,7c1,1,1,3.3,3,3c-1.1,1.7-2.3-1.3-3,1c1.5,0.4,2.1,1.1,3,2
		c-1.3-0.2-2.3,1.3-3-0.5c-1.3,1.3,0.3,2.7,0.5,4c-0.3,0.2-0.6,0.7-1,0.5c-2.2-2-2.1-7.2-2-8c-0.1,0.8,1,1.3,1.5,2
		c0.7-0.6,0.7-1.5,1.5-2c-3.2-1.7-4.1-6.7-5-9.6c-1.9-0.1-2.3-2.5-4-3.5c0.7-1.3,2.8,0.2,3,1.5c0.3,0.6,0.9,0.5,1.5,0.5
		c0.2,0.5-0.3,0.8-0.5,1c0.3,0.2,0.5,0.7,1,0.5c1.2-1.1,0-2.5-0.5-3.5c-2.7-1.8-4.9-4.8-8-5.5c-0.2-0.5,0.2-0.8,0.5-1
		c-1.8-3.2-6.4-1.3-8-4.5c-1.3-0.3-2.3,0.4-2.5,1.5c-0.7-1.1-0.1-2.9,0.5-4c2.2,3.4,5.4-0.3,8,2l2.5-1.5c-3.8-0.4-1.6-6-5-5
		c-0.1-0.6,0.1-1.2-0.5-1.5h-1.5C464.4,116.5,467.6,119.2,468.7,120.7L468.7,120.7z M502.8,119.2c-0.9,1.7-3.5,0.9-4.5,1
		c0-0.6-0.2-1.2,0.5-1.5c0.6,0.5,1.1,1.3,2,1c0.8-0.7,0.9-1.2,0.5-2L502.8,119.2L502.8,119.2z M509.4,119.2c0.5,0.9,1.7,0.3,2.5,0.5
		c-0.8,0.2-2.5,1.6-3,2.5c0.3,0.2,0.5,0.7,1,0.5l1-1c0.3,1.7-0.2,4.4-1.5,6c1.8-0.2,4.7,4.8,6.5,1.5l-2.5-0.5c1.5-1.4,3.4-3.6,5.5-2
		c0.8-2.3,2,0.5,3-1l-1.5-1.5l1.5-1.5c-2.8-1.6-4.4,2.6-7.5,1.5l-2.5,2.5c-0.6-1.8,1.7-3.5,3-5l2,1c0.4-1.1,1.4-2.7,3-2
		c4-1.3,0.1,4.1,4,1.5l0.5,0.5l-1.5,1.5c1.4,0.8,2.2,1.3,3.5,1.5c-1,0.3-1.8,1.3-1.5,2.5c2.9-0.2,4.5-2,8-2c1.3-0.4,3.7-1.5,4.5,0
		c-1.6,0.5-4.3,2.9-7,1c-1.1,1.5-3.6,0.7-4,3l2.5,2c1.7-2,4.9-2.4,7-2l-2.5,1.5l0.5,0.5l-4,4c2.4,1.3,5.2-4.7,7-0.5l1-1l-1-1
		l0.5-0.5l0.5,1.5c0.9-1.3,2.9,0.4,3.5-1.5l-3-0.5c8.6-2,17.8-1,25.6,3c1.3-1.8,3.4,1,4.5,1.5c-3.3-1-8.9,0.7-12.1-2
		c-7-0.3-14.7-2.3-19.6,4c-1.9-0.1-2.8,2.5-4.5,3c1.9,1.8,3.3-3.6,5-0.5l3-1.5c0.9,1.8-0.8,3.2-3,4c-3.3,0.8-6.8,2.2-8.5,5.5l-1-1.5
		c0.2,1.7-2.3,2.3-2,4c1.6,0.8,3.2-1.3,4.5-2.5l0.5,0.5l-3.5,4l0.5,0.5c2.6-1.9,7.8-4.9,7.5-6.5c0.8,1,3.4-0.5,2.5-1.5
		c0.5,0.2,0.8-0.2,1-0.5l0.5,1.5c4.4-3.4,8.6-2.5,13.1-5.5c2.9,0.4,7.1-0.7,9.6-1.5l1,1.5c0.3-0.7,1-0.5,1.5-0.5l0.5,0.5l-2,1.5
		c1.8,1.3,4.3,1.6,6,1.5v1c1.1,1.3,2.4-1,3.5,0.5c0.4,0.4-0.4,2.6,1.5,2c0.6-0.5-0.2-2.1,1.5-1.5l1,1l-2.5,0.5
		c5.7,3.9,10.9,8,15.1,12.6l-0.5,0.5l-1.5-1.5l-0.5,0.5c-6.9-7.6-16.8-15.2-27.1-13.6c-3.8,1.5-6.2,3-10,4.5c2.8,0.3,4.1,1.4,6.5,1
		c-0.2,0.5,0.3,0.8,0.5,1c2.8-1.8,6.8-0.8,9.6-2.5c0.8,0.8,2,2.3,3,1l-0.5,1.5c3.4,1.6,8,3.5,11.6,6c-0.2,0.8,0.7,1,1,1.5l-0.5,0.5
		l-0.5-1.5l-6.5-3c-1.2,1-0.9,3.1,0.5,3l-4,2c-0.7-0.6-0.7-1.5-1.5-2l-2.5,1l-1-2.5c-3,0.7-6.2,2.8-9.1,2.5c0.8,1.2-1.2,1.8-2.5,1.5
		l-0.5,0.5c0.3,0.3,0.6,0.7,1,0.5c0.2,0.5-0.2,0.8-0.5,1c-1.9-0.3-2.6-2-4.5-0.5l-1,1l1.5,1.5c-0.6,0.7-1.4,0.7-2,1.5
		c0.6,0.9,1.7,0.3,2.5,0.5c-0.2,0.5,0.3,0.8,0.5,1l2-2c2,2.3,3.2-3.4,5,0c7.3,0.2,13.2,1.3,19.6,4c1-0.2,2.3,0.4,3-0.5
		c-3-0.8-5.6-2.3-8-4.5c2.3-3.5,5,0.6,7.5,1.5c0.8,0.4,0.4,1.8,1.5,1.5l0.5-0.5c-0.5,2.5,5.2,3.1,3.5,6c2.6,0.3,2.2,4,5,4.5v2.5
		c-0.5,0.1-1.2-0.1-1.5,0.5c0.1,1.4,1.7,0.8,0,2c4.6,2.6,2.5,8.3,7.1,10.6l-3.6,0.5c0.2,2.8,4.6,0.7,3.6,4c0.6,1,2.3,1.6,2,3l-1,1
		c2.3,1.8,3.1,3.6,2,6.5l-0.5,0.5l2,1c-2.3,4.3,2.3,9.4,0,13.6c0.3,1,1.8,2.3,0,3.1c2.1,3.4-0.2,6.6,2,10.1c3,6.3-8,9.4-0.5,15.1
		c2.4,3.4,0.7,6.5,2.5,10.1c-0.5-0.2-0.8,0.2-1,0.5c-2.5-2.9-1.8-7.6-4-11.1c-1.8-1.9-4.1-0.3-6.1,0c0.8,0.8,2,2.3,3.1,1l-1.1,2.5
		c2.7,0.5,1.4,4.4,1.1,7c0.3,1.8-2.9,2.8-1.1,4.5l6.1-4l4,3c0.1,5.8-3.8,11.8-2.5,18.1c-1.9,1.1-1.8,1.7-1,3.5l1,1l-1,1
		c1.3,2.9-0.4,5.7-0.5,8.6c1.8,1.8-1.7,5,1,7c-0.8,3.1-1.3,5.3-1,8.5c0.8,0.5,0.3,1.7,0.5,2.5l-1,1c2.3,1-0.4,2.4,0.5,4
		c-3.4,1.2,0.3,3.7-1.5,5.5c-2.4,1.5-1.2,2.6-2.5,4.5c-0.9-0.3-0.4-1.3-0.5-2l1.5-1l-2.5-1.5l0.5-0.5l-1.6-2c0.5-0.3,0.8-1.2,1.6-1
		l0.5,1.5c1.8,0.2,0.4-1.8,1.5-2.5l-0.5-0.5l2-1.5c-3.8-0.2-1.7-3.4-1.5-5.5l1-1c-0.7-0.7-1.5-0.7-2-1.5c-1.1,2.9-1.6,6.5-5.1,8
		l2,0.5c-0.1,1.8-1.6,1.7-2.5,3c2.9,0.3,0.9,3.3,0.5,4.5c-0.3,2.5,2.5,3.8,1.5,6.5c-0.6,0.8-1.6-0.4-2.5,0.5c0.4,1.8-0.8,3.7,1,5.5
		c-2-0.8-1.8,1.7-2.5,3c0.4,1.3-0.4,2.3-1.5,2.5c-0.3,2.2-3.5,5.6,0.5,7c-0.3,1.4-0.8,3.2-2.5,3.5l-0.5-0.5c-1.1,1.8-2.8,4.1-5,4.5
		l-3-1c0.1,4.6-4,8.7-1.5,13.1c-4,0-0.4,3.6-1.5,5.1c-7.9,8-2.7,19.5-10.6,27.7c-2.5,6.5,5.7,9.1,8.5,13.6l7,6l-0.5,0.5
		c0.8,1.2,3.1-0.6,1.5,1.5c2.2-0.1,2.2,2,4,2.5l-0.5,0.5c2.9-0.5,1.2,3.5,4,3l-0.5,0.5l2,0.5l-1.5,1l1.5,1.5l-0.5,0.5l3,2.5
		c-1.9,1.4-5.6,2.9-6.5,6c0.6,0.9,1.7,0.3,2.5,0.5c-0.6,1.3,1,1.4,1.5,2l-3,3c0.4,0.5,1.3,0.8,1,1.5c-0.3,0.7-0.9,0.5-1.5,0.5
		c0-1.2-1.3-2.6,0.5-3.5l-1.5-1.5c-1.3,1-1.4,1.7-0.5,3c0.2,0.5-0.2,0.8-0.5,1c-0.5-0.7-1.5-1.1-1.5-2l0.5-0.5
		c-1.3-0.3-2.5-1.3-4-1.5c-0.3,1.3,0.7,3.3,1,5c0.8-0.3,1.5-0.3,2-1c1.9,0.9,2.2,2.2,4,3l-2.5,2l0.5,0.5c-1.6,0.2-0.8,1.6-1,2.5
		c1.4,0.2,3-0.4,4,0.5c-1.7,1.4-4.9-0.9-6,2c1.8,3.4,4-2.4,5,1.5l1-1c0.7,0.3,0.5,0.9,0.5,1.5c-1.2-0.9-3.8,1.9-4.5-0.5
		c-0.2,0.3-0.5,0.7-1,0.5l-1-1c-0.5,0.6-1.2,1.1-1,2c1.6-0.1,4.3,1.7,6,1l-3,1.5c0.3,0.3,0.6,0.7,1,0.5c0.2,0.5-0.2,0.8-0.5,1
		c0.9-1.5-2.1-1.8-2.5-3c-2.5,1.4,0.7,3.1,1,4c-0.8-0.9-2.3-0.3-3.5-0.5c0.4,1-0.8,2,1,3c0.3-0.3,0.6-0.7,1-0.5l-1,1
		c-0.2-0.3-0.5-0.7-1-0.5l-0.5,0.5l1,1l-0.5,0.5l1.5,1c-1.1,1.9-3.3,4.4-6,5.5l2.5,0.5c-0.8,0.7,0.3,1.3-1,2
		c7.4,0.4,14.2-3.2,21.7-4c2.8-0.9,3-4.6,6-5c0.3,4.1,3.4,1.3,5.5,1c3.6-0.1,7.4-2.1,10.6,0.5c0.3,1.2-0.5,2.3-1.5,2.5
		c-5.2-2.5-10.7,0.3-15.6,1.5c-4.9,8-8.7,16.5-12.2,25.1c5.1,0.3,8.3-5.8,11.6-9c0.6-2.5,2.8-5,2-7.5c-2.5,0-3.4,1.9-5,3.5
		c-1.4-1.2,1.1-2.1,1-3.5c1.9-0.8,3-3.3,5.5-2.5c4.1,0.8,2.3,5.6,2,8c-3.4,4.7-7.2,10.5-12.1,13.1c17.6,9.6,40.5,15.7,49.3,36.8
		c-0.3,0.5-1.2,0.8-1,1.5c1.7,1.8-1,4.4-1.5,6.5c-17.8,20.5-46.7,18.4-72,23.1c-33.3,5.9-68.5,4.4-103.1,7.5
		c-7.4-0.9-17.6,0.1-24.2-3c-0.8-0.8-2.3-1.9-1-3c7.9-5.3,17.8-2.3,26.2-4.5c4.2,0.5,9.3-1.3,12.6,1.5l-2,2
		c-7.9,0.7-16.4-1.7-23.6,2c14.2,3,29.5,0.6,44.2,1c20.6-1.3,41.2-1.2,61.9-4c24.5-5.9,52.4-3.7,73-19.1c1.7-4.9,4.1-11.1,1-16.1
		c-1.8-5.5-7.1-11.8-13.1-13.6c-10.8-6.3-20.5-16.8-33.8-15.7c-1.9,3.3-2.1,7.8-5.5,10.1l-3.5-0.5c-1.3-3.6,7.2-7.9,0.5-10.6
		c0.1-1.8,1.3-4.3,3.5-4c4.1,0.9,2.4-4.5,5-5.5c-0.4-4,4.9-6.2,3.5-10.1c-3.8,3.7-8.5,5.1-11.1,10.1l-18.6,18.1
		c-1.3,0.1-2.3-1-3.5-1.5c2.2-1.7,4.2-4.4,4-7.6l-0.5-0.5c-0.5,3.4-4.8,4-5,7.5c-2.3-0.2-1.6,2.3-1.5,3c0.5-0.1,0.8,0.3,1,0.6
		c-1.7,0.6-4.4,2.8-6.5,2c-1.2,0.4-2.5,2.5-4,1l-2-3.6c-2.9,2.4-5.7,5.4-9.6,5.6c-2.8-1.3-1-5-1.5-6.6c-5.3,3.9-9,13-15.6,9.1
		c0.7-1.8-1-2.7-1.5-4l1-1l0.5,0.5c2.4-9.3,10.7-16.2,16.1-24.2c-0.3-0.6-0.9-0.4-1.5-0.5l-16.1,17.1c0.3,0.8,0.3,1.5,1,2
		c-0.9,1.5-1.5-0.7-2.5-0.5c-6.4,5.2-9.7,12.5-17.6,16.2c-1.2-0.1-2.4,0.2-3-1c-0.2-1.2,0.4-2.7-0.5-3.5c-3.9,3.9-8.9,7.5-14.1,9.6
		v1c-6.4-0.3-0.7-5.7-1-8.6c0.3-0.7,1.4-1.5,0.5-2c-1.3,1.2-4.1,2.3-5,4.5c-0.1,2.3,2-0.7,1.5,2h-1c0-1.8-1,0.1-1.5-1
		c-4.2,0.8-6.9,5.2-10.6,7c-3.3,1.5-7.3,5.5-10.6,2.5c2.6-11,9.9-20.5,17.1-29.2h-3c-8.7,6.7-15.2,15-23.7,22.2c0.7,1.7-1.3,1.2-2,2
		c-4.9,6.5-14.2,8.8-17.1,17.1c-1.7,1.1-2.9,4.4-4.5,3.5c2.3-4.6,10.1-8.3,7.5-13.6c3.1-14.4,16.1-25.1,23.7-37.3
		c-8.6-4.7-6.1,8.6-11.1,12.1c-13.3,17.2-29.2,31.6-47.3,40.7c-1-0.2-1.9,0.1-2.5,1c-1.9-1.9-6.3-0.1-6.5-4c-2.3-4.4,0.1-10,0-14.1
		c-5.4,4.1-7.1,10.6-9,16.6c-1.8,0.8-0.5,3.9-3,3.5c-0.9-10.1,6.6-16.6,11.6-24.1c-0.3-0.7-0.9-0.5-1.5-0.5c1.3-1.9,1.4-4,3.5-4.5
		l-1,1l1,1c10.3-9.1,17.4-22.5,30.2-28.7c1.3-0.4,2.6-2.5,4-1c-4.8,3.2-10.5,7.3-14.6,12.1l0.5,0.6c8.6-6.1,18.4-9.6,27.2-15.2h-0.5
		v-1h0.5v0.5c4.6,1.3,11-5,14.6,1.5c2.9-1.3,6.4-3.3,8.6-4c1.9-0.3,2.5-0.8,4.5-1.5c0.6-1,0.8-2.2,2-3c0.2,0.3,0.6,0.6,0.5,1l-1,1
		c1.5,0.5,3.4,1.2,4,3c4.8,0.8,9.9-1.9,13.1-5.5c-0.6-0.6-1.3-1-1-2l1.5,1.5c1.9-1.5,0.1-6.5,3.5-5.5c1.5-0.8,0.9-4.9,3.5-3l2.5-2
		c-0.6-0.7-1.5-0.7-2-1.5l-1,1l-0.5-0.5c0.3-0.5,1.2-0.8,1-1.5c-0.8-0.9-2-0.3-3-0.5c-0.1-2.2,3,0.2,3-2c0.9-0.8,2.9-0.2,3-2
		c-1.3-1.8-2.5,2.3-3.5-0.5c2.4-0.3,2.8-0.7,5.5-2c0.6-2.9,0.7-4.4,4-6.5c-0.6-0.5,0.2-2.1-1.5-1.5l-0.5-0.5c1.5-3.3,3,2.4,4.5-1
		c-1.1-1.2-2.2,0.6-2.5-1.5l1.5-2l-4-0.5l-3.5,3c-5.4,1.2-2.8-9.5-7.6-4l2,2c0.3-0.3,0.5-0.7,1-0.5c-1.1,2.1-3.1,0-4.5,2
		c-1.1-0.5-2.1-1.3-3.5-1c-0.3,0.3-0.7,0.6-0.5,1c-1.5-2.5-3.8,0-5-1.5c-2.3,0.8-7,3-9.5,0c-1.5,1.3-3-0.3-4.5-0.5
		c-0.4,1.8,0,3.9-3,3l-1-1l-3.6,3.5c0.9-2.5-3.8-5.3-1-8c-3.9-4.8,7.5-4.6,1-9l0.6-0.5l2.5,3.5l3-1.5c-0.6-0.6-1.3-1.1-1-2
		c1.3,2.4,3,1.3,4.5,1.5l-0.5-1.5c0.4-0.2,0.7,0.3,1,0.5c-0.2,3.3-5.4,2-7,3c0.5,0.8,0.4,1.9,1.5,2.5l2-0.5l-0.5-1.5l2.5,3l1-1
		l0.5,0.5l-1,1l0.5,0.5l-2,2l1,1l1-1l1,1.5c-1.9-5.9,4.6-0.8,6.5-4.5c-0.5-0.3-0.8-1.2-1.5-1c0.6-0.5,2.8-1.2,3.5-1
		c0.2,0.8-0.7,1-1,1.5c1.5,2.3,2.3-0.8,4-0.5c1.2,0.6,1.3,2.8-0.5,3c2.9,1.9,1.9-2.5,3.5-3.5l-0.5-0.5h2.5c0.6,0.7-0.2,1.9-1,2.5
		c0.9,0.3,1.7,1.6,2.5,0c0.2-1-0.4-2.3,0.5-3h1.5c-0.2,0.5,0.2,0.8,0.5,1l-2,1.5c0.8,0.2,1.7,1.8,2.5,0.5l1.5,1.5
		c1.3-1.6-2.7-3.5,0-5c-0.8-1.7-3.9-0.5-2-3l-3-1.5c0.4,1,4.4-2.1,3.5,1c1.7,0.7,1.2-1.4,2-2c-0.8-1.2-3-3-1-4c-2.3,1.6-4-3.4-6-1
		c0.2,0.3,0.7,0.5,0.5,1l-0.5,0.5c0.2-3-3.2-1.3-4.5-2.5c-2.8,0.4-6.5-0.7-9.5-1c1-1.4,4.4,0.9,4-2c3.4-0.1,8.7,0.6,11.1-2.5
		c3.9,1.8,1.8-4.4,4.5-3c0.3-0.5,1.2-0.8,1-1.5c0.9-0.3,1.4,0.5,2,1c0.3-1.7,4.6-3.6,1-5c-3.9-3.4-2.6,4.4-6.5,1
		c-1.6-2.4-4,0.4-5.5-0.5c-0.3,0.3-0.7,0.5-0.5,1c-0.8-0.7-2.4-0.6-2.5-2l2,1c1.3-1.7-0.9-1.8-2-3.5c-4.3,1.9-6.7-3.7-10.1-1
		c-3.9,0.8-6.6-0.1-7.5,4.5l0.5,0.5l-2,2l0.5,0.5c-0.6,1.2-2.7-0.3-2.6,1.5c-3.9,1.2,0.4-3.2-3.5-2c0.4-1.5,1.2-2.9,2.5-4
		c1.9,0.9,2.8-1.3,3.1-3c-0.8-0.5-2-0.9-2.1-2l0.6-0.5l1.5,1.5l1.5-1.5c0.5,0.3,0.8,1.2,1.5,1l1-1c2,1.7,3.7,1.1,6,0.5l1.5-1.5l-1-1
		c3.1,1.1,1.8-4.1,5-4.5c-0.4-1.2,0.6-3.3,1.7-5.6c1.9-3.9,4.1-8.7,0.8-12c3-2.2,0.1-5.6-0.1-9.9c-0.3-3.7-0.7-7.4-3.4-8.7
		c0.3-1,1.6-1.8,0-2.5c2.7-9.3-4.9-20.6-7-29.7c0.5,0.1,1.2-0.1,1.5,0.5c-1.2-3.8,2.4-7-1-10.6c1.5-0.9-0.8-1.5-0.5-2.5
		c-3.7-2.2-7.8-6.1-9.6-9.6l0.6-0.5c0.6,0.6,1,1.3,2,1c1.7-3.1,2.3-3.6,4.5-6.5c-2.3-0.9,0.3-2.3,0.5-3.5c0.2,0.3,0.5,0.7,1,0.5v-2
		c2.2,0.9,0.9,3.2,2,4.5c2.3,1.3,1.7,3.7,2.5,5.5l-0.5,0.5l2,2.5c5.7-4.2-0.2-10.4,5-14.6c-1.9-0.8-1.7-2.3-3-3.5c1-0.5,0-2.2,1.5-2
		l0.5,0.5c0.6-0.3,0.4-0.9,0.5-1.5h1.5c-3.1,2.7,1.2,4.8,3,6c3.2-0.2,3.9-3.1,3.5-4c2.8,1.5-0.3-1.5,1.5-2.5c0.5,0.3,0.8,1.2,1.5,1
		c-0.2-3.6,4-1.5,6.5-3.5l1,1.5c0.6-0.3,0.4-0.9,0.5-1.5c2.1,0.7,3.8-0.8,4.5-2.5l0.5,0.5c2.3-0.8,0-2.3,0-3.5l-1-1
		c3.9-1.8-1.2-4.4,0.5-6.5c0.5,0.8,0.9,1.9,2,2l0.5-0.5c-3.2-1.4,0.3-5.7-4-4c-0.6,0-1.2,0.1-1.5-0.5l2.5-2c-0.5-0.7-1.6-1.2-1.5-2
		c1.4-0.6,2.5,2.5,3.5,0c0.6-3.5-3.6,0.2-2-3l1,1l0.5-2l2.5,2l0.5-0.5c-0.9-0.6-1.2-1.5-1-2.5l0.5-0.5l1,1.5l2.5-1.5
		c-0.1-1.4-0.9-2.6-2-3.5c-0.8-0.1-1.5,1.2-2,0c-0.2-0.8,0.7-1,1-1.5c-1.2-1.7-2.4,1.2-3.5-0.5c-0.7,0.6,0.1,1.8,1,2.5
		c-2.1-0.6-2.1-3-4.5-2.5c0,1.6,1.4-3.9-2-2c-0.6,0.6-1.3,1.1-1,2l1.5,1.5l-0.5,0.5c-1.8-3.2-4.8,0.1-7,0.5c-1.8-2.2-3,1.9-4.5,0.5
		l1.5-1c-0.6-0.7-2.1-0.7-1.5-2l0.5-0.5c-0.5-0.3-0.8-1.2-1.5-1l-0.5,0.5l-1-1.5l-0.5,0.5v-2.5c1.4-0.9,1.8,2.3,3,0.5
		c0.5,1.7,1.8,4.3,4,2.5l1-1c-1.3-1.1-1.8-2.3-0.5-3.5c0.5-0.3,0.8-1.2,1.5-1l2,2c0.6-0.3,0.4-0.9,0.5-1.5l-1.5-1.5l0.5-0.5
		c0.8,0.5,1.2,2.1,2.5,1.5l1-1c0.2,0.4-0.3,0.7-0.5,1c2.4,0.2,3.6,0.2,5-2.5l-0.5-0.5c2.6-0.1,0.8-4.1,4-4l-1-1
		c-0.3,0.6-0.9,0.4-1.5,0.5l-0.5-0.5c1.2-1,3.4-2.6,4.5,0c0.4,0.2,0.7-0.3,1-0.5c0.8-1.8-1.4-2.3-2-2c0.5-0.6,1.3-1.1,1-2l-0.5-0.5
		l-2,2.5l-0.5-0.5l1-1c-2.3,0.4-1.8-2.9-4-2.5l0.5-0.5c-2.1-0.1-0.7-2.4-2.5-3c0.6-0.3,0.4-1,0.5-1.5c-0.2,0.4,0.2,0.7,0.5,1l1.5-2
		c-0.6-0.6-1.3-1.1-1-2l2,2l-2,2.5c0.8,1.5,2.8,1.9,4,1c3.6-3.3-2.4-3.6-2.5-6.5c1.9,1.8,2.4-1,3.5-1.5l1.5,2l-3,0.5
		c0.3,0.6,0.9,0.4,1.5,0.5c-1.2,0.9,0.1,1.7,0,2.5c0.6-0.1,1.2,0.1,1.5-0.5c-0.5-2,2.8-2.3,3.5-3.5l-1,1c1.3,0.5,2.3,3.3,4,1.5
		c0-0.9-1-1.4-1.5-2c0.9-0.4,0.3-1.4,0.5-2c-1.3-1.1-2.6,1-4,1c0.1-1.4,1.7-1.4,2.5-2c-0.3-0.7-0.9-0.5-1.5-0.5
		c0.3-2.4-1.9-2.9-1.5-3.5c0.8,0.5,1.2,2,2.5,1.5l1-1l-1.5-1.5l0.5-0.5l1.5,2c0.5-0.4,0.8-1.3,1.5-1c-0.2,1.7,0.9,3.3,1,4.5
		c3.9-2.3,2.5,3.9,5.5,4.5l-0.5,0.5c-0.6-0.6-1.1-1.3-2-1l-0.5,0.5l2,2l-1.5,1c0.7,0.6,0.7,1.4,1.5,2l1.5-1
		c-0.6,1.3-0.5,1.8-0.5,3.5l2.5,2c1-1.9,1.8-0.8,3.5-1c0.6,0.3,0.5,0.9,0.5,1.5c-0.6,0.8-2.7,0.3-2,2c2.1,1.7,3.4,0.5,5.5,1
		c-0.5,1-2.2,0-2,1.5c0.6,0.9,1.5,1.1,2.5,1l1-1.5l1.5,1.5l1.5-2c-1.2-1-2.2-2.1-0.5-3.5c-0.5-0.9-1.7-0.3-2.5-0.5
		c-0.6-2.2,3.4-3.7,0.5-5.5l0.5-0.5l-2-2c0.1,3.4-2.8,0.7-4,1.5c1.5,0,2.8-1.8,1.5-3c0.9-0.7,2,1.1,3.5,0.5
		c-0.8-1.5,1.5-2.8,1.5-4.5c-2.3-1.3,0-3,0-4.5c-0.6-0.8-1.5-0.7-2-1.5l-1.5,2l-1-1c-1-4.5-0.9-10.1-1.5-14.2l1,1
		c-0.9-1.8,1.3-3,3-3.5l2,3.5l0.5-0.5c-0.3,1.5,1.3,2.1,2.5,3.5c0.3-0.6,0.9-0.4,1.5-0.5l-1.5,1.6h2.5c-1.6,0.8-0.3,1.5,0,2.5h2.5
		l-0.5,1.5c0.8,0.6,2-0.7,3-1c0,1.1,0.3,2.3-1,3h2c-2.1,3.4,4,1.7,3,5c-0.3-0.9-1.3-0.4-2-0.5c-0.7,0.9,1,2.7,2,2
		c-0.6,0.3-0.5,0.9-0.5,1.5c1.5,0.2,3.4,4.5,5.5,1.5c-1.3-0.6-1.3-2.3-0.5-3c-2.2-1.6-1.7-4.7-4.5-5.5c1.7-0.9,0.3-1.7,0.5-2.5
		c-2.8,0.1-1.6-3.2-4-4l-0.5,0.5l1-1c-1.5-0.4-2.7-1.4-4.5-1.1l2-1c0.1-0.7-1.2-1.4,0-2c2.5-0.8,2.4,2.3,3,3.5l0.5-0.5
		c1.9,0.7,4.6,5.2,7,4.1c0.8,1.9,1.9,0.1,3,0c0.7,0.6-0.5,1.8,1,2.5c0.3-0.5,1.2-0.8,1-1.5l-0.5-0.5l2-1.5l-0.5-0.5l1.5-1
		c-4.4-0.2-0.9-4.9-5.5-4.6l2.5-1c0.8-1.3-1.8-2.1-3-2.5h-0.5c-0.2-0.2,1.7-0.1,1-1.5l-0.5-0.5c0.5-0.3,0.8-1.2,1.5-1l1.5,1.5
		c-1.1,0.7-1.1,1.7-0.5,2.5c0.3,0.7,0.9,0.5,1.5,0.5l1-1l1,1c0.9-0.3,0.3-1.3,0.5-2c-1.3-0.3-2.2-1.1-2.5-2.5c0.2-0.8-0.8-1.1-1.5-1
		c-3.1,0.9-0.1-3-3-2.5c-0.2-1.3,1.5-2.1,0.5-3.5l-1.5-0.5c0.3-1.8,3.4-3.2,2.5-5c0.8,0.1,0.6,1.4,1,2c-0.8,1.4-0.7,3,0,5l0.5,0.5
		l1-1l-0.5-0.5l0.5-0.5c1.1,0.3-0.2,1.8-0.5,2.5l5,5.5c0.9-0.5,0.3-1.6,0.5-2.5l-1.5-1l1-1c0.8,0.5,1.3,2.1,2.5,1.5l0.5-0.5
		c0.8-2.6-3.8-1.6-5-4c2.8-3.2,5.3,2.4,8.5,2c0.6,0.5-0.2,2.1,1.5,1.5l0.5-0.5c1.9,1.9,4.3,2.8,7,2.5l0.5-0.5
		c-1.3-2.3-3.9-1.6-5.5-3l3.5-0.5c-0.2-0.7,0.7-1,1-1.5c0.2,1-0.4,2.3,0.5,3c2.6-0.1-0.8-1.6,1-2.5l3,2.5c0.7-0.2,0.5-0.9,0.5-1.5
		c0.5,0.2,0.8-0.2,1-0.5c-3.7-1.7-6.7-4.8-11.1-5c1.3-0.9,6-0.3,8-0.5c0.8,0.9,2.3,0.3,3.5,0.5l0.5-0.5c-2.4-2-6.2-1.2-8.5-3.5v1.5
		c-0.2-1.7-0.6-1.7-2-3c4.7-1.3,10,2,13.6,4.5c-0.5,0.3-0.8,1.3-1.5,1l-1-1l-1,1c3.3,0.7,5.6,4.9,9,3.5c1.3,2.1,3.4,2,5,3l1-1
		c-2.8-0.3-3-3.6-6-3.5c0.4-0.5,1.3-0.8,1-1.5c-0.5-1.1-1.5,0.8-1.5-1l0.5-0.5c-2.4-0.3-4.4-3.3-6.5-3l-2.5-3c0.3-0.2,0.7-0.5,0.5-1
		c-4.9-1.4-10.4-5.8-15.6-2c-0.1-2.6,2.3-3.1,0-5c2.4-0.3,7.3,0.8,9.1-1c1.9,1.9,5.3,0.3,7,2.5l-2,1.5c1.4,2.2,3.8,2.1,6,2l0.5-0.5
		l-3.5-2c1.1-1.7,2.7,0.2,4-0.5c2.8,2.6,5.5,4.3,9,6c1,1.1,1.2,3.1,3,3l0.5-0.5c-2-4.2-5.9-3.8-8-8c0.3-0.2,0.7-0.5,0.5-1
		c-3,1.1-6.5-2.7-10.6-2.5c-3.3-5.6-12.6,0.8-14.1-5.5l-1-0.5c3.8-2.6,9.1,3.1,12.6,2.5c0.5,0.2,0.8-0.2,1-0.5
		c-2.2-3.2-7.9-3.7-8.6-7.5l0.5-0.5l1.5,1.5c1.3-2.5,3.3,0.6,4.5-0.5l0.5,0.5l-2,1.5c0.6,0.9,1.7,0.3,2.5,0.5
		c0.6-0.5-0.2-2.1,1.5-1.5c0,1.9,1.9,2.1,3,3c2.6,0.4,5.9,2,8.6,3.5c-3.3,2.8,2.6,3.4,3,5.5c1.3,1,3.5,2.6,4.5,0
		c-0.5-0.7-0.2-2.1-1.5-2c-0.9,2.3-2.4-0.3-3.5-0.5l-1.5-2l1-1c-2.8-1.6-3.9-3.9-5.5-6c-1-1.3-2,0.3-3,0.5c-1.7-4.2-4.5-1.6-7-4.5
		c-3.2,1.3-9.9-2.8-10.5,1.5c-1.2,0.3-2.7,1.2-3,2.5l-3.5-0.5c1.3,0,3.9-2.5,6-3c-3.4-2.2-5.8,2.7-9.1,1c-0.8,1.3-3.2,2.8-5,1.5
		c-0.6-1.8,1.7-2.8,3-3c-1.1-1.9-2.8,0.7-4.5,0.5l-0.5,0.5l-1-1.5c-0.7,0.6-0.7,1.5-1.5,2c1.4-2.3-3.3-0.6-3.5-2.5
		c3.8,0.2,8-1.5,11.6-3c-3.5-1.9-7.7,3.7-11.6,1c0.3-0.5,1.2-0.8,1-1.5l-0.5-0.5l1-1c-0.3-0.6-0.9-0.5-1.5-0.5
		c1.5-1.6,5-2.7,5.5-5.5c2.5-0.1,4.9-1.7,6.5-2.5l-0.5-0.5l1.5-1.5c-1.1-1.6-3.2,0.2-4.5,1c-0.9,0.6-4.5,1.1-5.5,3l-1-1
		c-0.6,1.3-1.8,1-3,1c-0.6-1.3,1-1.7,1.5-2.5c-0.5-0.9-1.7-0.3-2.5-0.5c-0.5-1.5,2.2-2.2,0.5-3.5c-3,2.3-6.8,3.9-9.1,7l-2-0.5
		c1.8-3.1,5-4.7,7.5-7c-1.2-1.7-1.8,1.2-3,1c-0.2-0.7,0.4-1.7-0.5-2c-0.8,1.8-2.7,3-4,4.5l-0.5-2c-1,0.2-2,1.8-3,0.5
		c0.8-1.2,2-1.3,3-2l1,1c0.7-0.3,0.5-0.9,0.5-1.5c-0.6-1.2-2.7,0.3-2.5-1.5l1.5-1.5l-1-1c-0.2,2.5-2.9,0.8-4,2c-1.7-1.2,1.2-1.8,1-3
		c0.6,0,1.2,0.1,1.5-0.5c-3.5-0.2-1.2-3.9-2-5.5l-1,1c-1-0.5,1.7-3.2,2.5-2.5c0.2-0.5-0.3-0.8-0.5-1c-2.4-1.3-1.4,2.3-3.5,1.5
		c-1.7-1,1.2-2.9-1.5-2.5c-1.7-4.7,4.8-8,4.5-12.1c-2.7,1.9-3.9,5.4-6.5,6.5c2.1-1.2-1.5-3.4-1-5.5l-1.5-1.5c-0.7,0.6-0.7,1.4-1.5,2
		c0.4-2.8-1.7-5.2,0.5-8l-0.5-0.5c-0.8,1.5-2.4,2.7-2.5,4.5c-2.5-3.5,1.8-4.1,1-7c-1.2,0.5-1.7,2.1-3.5,1.5l3-2.5l-3-1.5
		c2.2-0.8,5.4-0.8,7.5,0L509.4,119.2L509.4,119.2z M380.6,119.7c-0.5,0.3-0.8,1.2-1.5,1l-0.5-0.5C379.1,119.6,380,118.5,380.6,119.7
		L380.6,119.7z M442.4,122.2h-4l0.5-0.5l-1.5-1.5l1-1C438.3,121.7,441.1,121.2,442.4,122.2L442.4,122.2z M535,122.2
		c-1,1.8-3.4,0.7-5,1C531.3,122.1,533.3,121,535,122.2L535,122.2z M412.3,123.7c0.6-0.9,1.7-0.3,2.5-0.5c-1.9-1-4.4,2.3-5-1
		C411,121.8,412,122.6,412.3,123.7L412.3,123.7z M549.6,124.2c-1.3,2.3-3.4,0-5,0l-1.5-2C545.5,122.3,547.3,123.8,549.6,124.2
		L549.6,124.2z M402.2,123.2l0.5-0.5l1.5,1L402.2,123.2L402.2,123.2z M434.9,123.2c-0.8,1.3-1.2-1.4-2.5-0.5L434.9,123.2
		L434.9,123.2z M447,124.2c1.7,1.5,4.1,1.2,6.1,2c-0.8-0.2-1,0.7-1.5,1c-1.1-1.3-3-1.8-4.1-1.5l-1-1c-0.6,0.3-0.4,0.9-0.5,1.5l-1-1
		l-1,1c2.4,3.4,6-0.6,8.1,3.5l2.5-0.5c-0.8-0.2-1,0.7-1.5,1c2.9-0.1,1.2,4.2,3.5,3c2,1.3,2.8,3.4,4,5.5c1.8,2.6,4.8,6.8,5,11.1
		c-0.7-0.6-0.7-2.8-2-3c-0.9,0.8-0.4,2.3-0.5,3.5c-0.3-0.2-0.6-0.7-1-0.5c-0.6,0.6-1.3,1.1-1,2c1.7-2.9-5.2-5.5-3.5-10.1
		c-2.4-3.4-3.2-7.8-7-10.1c-0.7,0.3-0.5,0.9-0.5,1.5l-6.6-7.5c0.5-2,3.4-0.2,4-2.5C447.6,123.6,447.3,123.8,447,124.2L447,124.2z
		 M436.9,129.2c3.4,5.9,3.2,13.8,8,18.6c2-2.3,0.6-3.8-0.5-6l-2-7c1.9,1.9,1.1,5,4,6.5c-0.3,3.1,2.7,4.8,2.1,8
		c-0.5,0.2-0.8-0.2-1.1-0.5c-2.7,1.4,0.8,2.9,0.5,4.5l1.1,1c-2.7,1.2,0.8,4.4,0,7l-2.1-1.5l1-1c-1.4-2-3.5,0.3-5-2
		c-3-5-4.7-11.1-9-15.1c-1.6,0.8-0.2,1.5,0,2.5c1.2,3.4,3.7,6.3,5,9.6c-0.3,0.2-0.5,0.7-1,0.5c-1.3-3.5-4.6-8.8-8-12.1
		c0.4,1.1-1,4.2,1.5,5l-0.5,0.5c-5.1-3.9-9-6.6-11.1-12.6h-1c0-0.6,0.2-1.2-0.5-1.5c1,0.3,1.4-0.5,2-1l-2.5-2.5l-0.5,0.5
		c-1.2-1.3-1.6-3.4-3.5-4v-1c2.3,0.4,4.9,2.9,7,0.5c1.2-0.5,6.5,3.5,8-1.5l-2-1C430.7,124.4,434.1,126.3,436.9,129.2L436.9,129.2z
		 M441.4,129.7c-1.8,0-3.6-3-5-4c1-0.6-0.1-1.4-0.5-2C438.6,124.9,438.3,128.6,441.4,129.7L441.4,129.7z M553.6,126.7
		c-0.3,0.9-1.3,0.3-2,0.5l1-2C552.9,125.7,553.8,125.9,553.6,126.7L553.6,126.7z M333.8,126.7c-3.2,1.5-6.4,3-9.6,4.5v-0.5
		c2.5-2.6,6.2-2.5,9-4.5L333.8,126.7L333.8,126.7z M371,127.2c-1.6,3-6.4,2.6-9.6,4l-1.5,1.5l1.5,1c-3,2.1-8,3.7-10.1,7
		c-3.4-3-1.4,3.6-5,1.5c-1.3,1.7-2.6,2.8-4.5,4c-4.4,1.2-6.9,6.8-11.6,7c-1.9,5.1-8.7,6.8-11.6,12.1c2.2,0.8,3.1-2.8,5.5-2.5
		c-3.8,3.2-4.6,7.9-9.6,10.1c0.4,1.5-0.8,2.1-1.5,2l-8,9.6c-1.8-1.1,1.3-2.2-1-3l0.5-0.5l1,1c0.3-0.6,1.4-1.4,0.5-2
		c-0.9,0.2,2.8-1.1,0.5-2.5l0.5-0.5c1.6,0.2-1.2,1.6,1,1.5l0.5-2.5l0.5,0.5c1.3-1.8,2.4-5.8,5.5-6.5l0.5-1.5
		c0.3,0.7,0.9,0.5,1.5,0.5l0.5-0.5l-1.5-1.5c3.8-2.5,4.4-6.7,7.5-9l-0.5-0.5c2.5-0.7,3-3.9,5.5-5.5c-0.6-3.4,4.7-1.3,4.5-5
		c1.2-0.2,1.8-1.9,3-2c-0.6-0.7-1.5-0.7-2-1.5l2-1.5c-0.3-0.3-0.7-0.5-0.5-1l0.5-0.5c0.2,0.3,0.7,0.5,0.5,1l-1,1c1,1.3,2-0.3,3-0.5
		l-1-1c0.3-0.5,1.2-0.8,1-1.5c4.2-1.3,10.7-7,16.1-10.6C359.6,127.5,365.5,124.7,371,127.2L371,127.2z M474.2,128.2
		c-1,1.3-2-0.3-3-0.5l-0.5-1.5C472.1,126.3,473.2,127,474.2,128.2L474.2,128.2z M450.1,131.7c0.2-1.3-2.8-1.8-1-3
		C449.4,129.7,450.6,130.9,450.1,131.7L450.1,131.7z M392.7,131.2h-1c0.2-0.8-0.7-1-1-1.5h-2c0.8-0.7,2.3-0.7,3,0
		C391.5,130.4,392.3,130.7,392.7,131.2L392.7,131.2z M397.7,130.2l1.5,1.5L397.7,130.2L397.7,130.2z M424.3,132.2l-1-1.5h1V132.2
		L424.3,132.2z M364,131.7c-0.5,0.3-0.8,1.2-1.5,1v-1H364L364,131.7z M448.5,139.3c-2.2-1-4.2-3.8-4.1-6.5
		C446.6,134.2,447.7,136.8,448.5,139.3L448.5,139.3z M576.2,139.8l-0.5,0.5l-6-5C573.1,133.4,573.9,138.8,576.2,139.8L576.2,139.8z
		 M346.9,137.3c-0.6,0.5-1.1,1.3-2,1v-1H346.9L346.9,137.3z M439.9,144.3c-2.8-1.3-6.6-3.3-9.6-6l1-1
		C433.3,140.9,437.1,141.9,439.9,144.3L439.9,144.3z M554.6,139.8l-0.5,0.5c-0.8-2.2-2.3,0-3.5,0c-1.6,0.1-4.6-0.4-6.5,0.5
		C546.7,139.2,551.5,136.6,554.6,139.8L554.6,139.8z M558.7,140.3c-0.6,1.3-2-0.3-3-0.5C556.5,137.8,557.9,139.4,558.7,140.3
		L558.7,140.3z M518.4,139.3c-0.8-0.2-1,0.7-1.5,1C516.8,141.1,517,138.3,518.4,139.3L518.4,139.3z M412.8,142.8l-2,1v-1.5
		C411.4,142.4,412.4,141.9,412.8,142.8L412.8,142.8z M508.9,147.3l-0.5,0.5c-1.7-1.3-3.7-3.4-3-5.5
		C506.2,144.9,507.5,145.1,508.9,147.3L508.9,147.3z M494.3,145.3c-0.4-0.2-1.3-1.6-0.5-2C494.1,143.9,495.2,144.8,494.3,145.3
		L494.3,145.3z M529,147.3l3-4l-2.5,3.5L529,147.3L529,147.3z M331.8,144.8v-1l2,1H331.8L331.8,144.8z M583.3,146.3
		c-1.8,0.8-2.8-1.4-3.5-2.5C580.9,144.6,583.7,144,583.3,146.3L583.3,146.3z M476.2,148.3c-1.6-0.6-1.4-2.9-1.5-4
		C475.2,145.6,478,146.6,476.2,148.3L476.2,148.3z M558.1,144.8c-1.1,1.8-4.4,2.3-6.5,4c-2.4,0.1-4.5,0.8-6.5,2l0.5,0.5
		c-0.9-0.3-1.4,0.5-2,1c0.2-0.5-0.2-0.8-0.5-1c1.6,0.7,2.6-1,3-2c1.9-0.7,4.6-0.5,5.5-2.5c-3.1-0.8-6.1,1.7-9.6,1.5
		C547.4,147.1,552.8,144.5,558.1,144.8L558.1,144.8z M364,145.8l-2-1h1L364,145.8L364,145.8z M462.1,144.8c0.2,0.8-0.7,1-1,1.5h-0.5
		C460.5,145.5,461.4,144.8,462.1,144.8L462.1,144.8z M446.5,147.8c0.8,2-3.4,1-5-0.5v-1C443.9,146.1,443.9,149.9,446.5,147.8
		L446.5,147.8z M494.8,147.8l1.5,1c-0.9,1.5-1.6-0.7-2.5-0.5l0.5-2l1,1L494.8,147.8L494.8,147.8z M521.4,149.3l2-3l-0.5,1.5
		L521.4,149.3L521.4,149.3z M534,147.8c-0.6,0.7-1.5,0.7-2,1.5l-0.5-0.5C532.2,147.9,533.4,147.1,534,147.8L534,147.8z M433.9,152.8
		l-2.5,1.5c2.8,1.3,5.4,3.9,7,7c0.8-0.1,1.2,0.8,2,0.5l0.5-0.5c-0.6-0.8-1.8-1.4-2-2.5l4.5,4.5c-0.9-0.3-1.3,0.5-2,1
		c1.1,2.6,4,3,4,6l-3.5-3.5c0.3-0.2,0.7-0.5,0.5-1l-1-1l-1,1c0.3-0.9-0.4-1.4-1-2c-3.9,1.3-3-4.5-6-5.5l-0.5,0.5
		c-1.3-0.6-1.5-4.7-3.5-6.5l-2-4.5C429.9,148.7,433.7,149.7,433.9,152.8L433.9,152.8z M348.4,150.8l-1.5,1.5v-2.5
		C347.6,149.7,347.9,150.5,348.4,150.8L348.4,150.8z M586.8,149.8l1,1.5L586.8,149.8L586.8,149.8z M417.8,155.9l-1.5-2l0.5-0.5
		l1.5,2L417.8,155.9L417.8,155.9z M463.1,158.4c-0.7,0-0.9-0.9-1-1.5l1,1c0.5-0.6,1.2-1.1,1-2l-1-1c-0.3,0.3-0.6,0.7-1,0.5
		c-0.5-1.7,0.6-1.3,1.5-2C463.5,154.6,466.2,157.8,463.1,158.4L463.1,158.4z M365,157.4v0.5c-2.1,0.4-3.9-2.9-5.5-0.5l0.5-0.5
		c-2-2.4-4.7,2.7-7-0.5c3,0.5,6.5-3.6,8.6,0C362.5,157,363.7,157.1,365,157.4L365,157.4z M561.7,155.9h2H561.7L561.7,155.9z
		 M422.8,158.4c-0.9,0.3-1.4-0.5-2-1l1-1C422.5,156.9,422.7,157.6,422.8,158.4L422.8,158.4z M458.1,165.9l1-1l-0.5-0.5
		c-0.8,0.6,2.3,3.9,0.5,5.5l1.5,1.5c-0.4-0.2-2.7,2.3-4.5,2c2.1,0.9,2.2-1.8,3.5-2.5c0.8-1.6-1.5-2.8-3-3c0.3-0.5,1.2-0.8,1-1.5
		c-0.3-0.6-1-0.5-1.5-0.5c1-2.1-2.3-2.3-2.5-4.5l0.5-0.5c-2.3-1.4-1.4-2.8-3-4.5C454.4,159.1,454.9,163.5,458.1,165.9L458.1,165.9z
		 M348.4,158.4l3-1.5C351.7,159.9,349.6,156.9,348.4,158.4L348.4,158.4z M378.6,157.9l-1.5-1l1.5,0.5V157.9L378.6,157.9z
		 M482.7,158.9v-2l2,2H482.7L482.7,158.9z M330.8,157.9c-0.5,0.3-0.8,1.2-1.5,1l-0.5-0.5C329.4,158,330.2,156.9,330.8,157.9
		L330.8,157.9z M560.2,157.9c-1.6-0.2-3,0.2-4,1.5c-0.5-0.5-1.7-1.4-0.5-2C557,158,558.6,157.9,560.2,157.9L560.2,157.9z
		 M467.1,167.4l-1,1l1,1l-0.5,0.5l-1-1l0.5-0.5c-0.7-1.3-1.9-1-3-1l-0.5,0.5c1.3,1.1,1.8,1.8,1.5,3l0.5-0.5l-3-1.5
		c3.7-2.6,2.8-7,3-10C465.5,161.1,464.7,165.7,467.1,167.4L467.1,167.4z M472.7,158.9h0.5v2.5h-0.5V158.9L472.7,158.9z M474.7,160.4
		l1-1.5l-0.5,1L474.7,160.4L474.7,160.4z M551.1,159.4c-0.2,0.5,0.3,0.8,0.5,1h-1.5v-1H551.1L551.1,159.4z M481.2,163.4
		c-1.2-0.6-1.3-2.3-0.5-3h1L481.2,163.4L481.2,163.4z M485.7,161.4l-1,1v-1.5C485.2,160.7,485.4,161.1,485.7,161.4L485.7,161.4z
		 M370.5,162.4l-4.5-1l4,0.5L370.5,162.4L370.5,162.4z M584.3,166.9c-0.5,1.8,1,0.9,1.5,1.5l-1,1c-2.4-2.2-5.8-2.3-8-5
		c0.3-0.5,1.2-0.8,1-1.5l-0.5-0.5l-1.5,1.5l-1.5-1.5c1.9-1.8,3.7-0.2,5.5,0.5C581.1,164.8,582,166.3,584.3,166.9L584.3,166.9z
		 M571.7,164.9l-2,2c-0.5-0.3-0.8-1.2-1.5-1l-0.5,0.5c-3-2.9-8.3-0.6-12.1-2C560.2,160.8,567.4,164.7,571.7,164.9L571.7,164.9z
		 M360,164.4l-3.5-0.5h3L360,164.4L360,164.4z M534,164.9c-0.8,0-1.7,0.5-2.5,1.5l-0.5-0.5C532.1,165.7,533.2,164.2,534,164.9
		L534,164.9z M372.6,166.4l-0.5,0.5v-2C372.6,165.2,372.6,165.8,372.6,166.4L372.6,166.4z M481.7,166.4l-0.5,0.5v-2
		C481.8,165.2,481.6,165.8,481.7,166.4L481.7,166.4z M451.1,169.9c-0.5,0.2-2.2-0.9-2-2.5L451.1,169.9L451.1,169.9z M329.3,173.5
		c-0.8-1.8,1.3-1.6,1.5-2.5c2.9-0.2,6.4-1.9,10.1-2C338.5,170.4,333.2,171.9,329.3,173.5L329.3,173.5z M467.1,172.4
		c-2-1-2.8,2.4-3,0.5l2.5-1.5C466.5,171.9,466.8,172.2,467.1,172.4L467.1,172.4z M434.4,175l-0.5,0.5c0.8-1.6-2.3-2-3-2.5
		C433.8,172.3,433,174,434.4,175L434.4,175z M441.4,175.5l-1-1l0.5-0.5l-1-1C441.8,172.8,440.3,174.9,441.4,175.5L441.4,175.5z
		 M323.3,174c-0.6,0.7-1.3,0.8-2,1l1.5-1.5L323.3,174L323.3,174z M449.6,175l0.5-1.5l0.5,1.5H449.6L449.6,175z M455.1,175.5l1.5,1.5
		l1-1l-0.5-0.5l1-1c0.3-0.1-0.8,3.4,1.5,2.5c-0.9,0.8-2.4-1.5-3.5,0c1.5,1.5-3,3,0,4.5h-1c-0.1-2.9-0.5-1.1-0.5-3.5l-2.5,1
		c0.3-0.2,0.6-0.5,0.5-1c-1.3-0.4,0.3-3,0.5-4.5l1.5,2.5L455.1,175.5L455.1,175.5z M336.4,174c-3.4,1.9-5.1,4.4-9.1,3.5
		c0-0.6-0.2-1.2,0.5-1.5c0.5,1.9,2.3,0.2,3.5,0C332.5,175.3,334.1,173.2,336.4,174L336.4,174z M425.8,177c-0.7-0.8-0.8-2.4-0.5-3
		C425.5,175,427.2,176,425.8,177L425.8,177z M473.2,176.5l-1.5-0.5l0.5-0.5l-1-1C473.1,172.6,472.6,175.5,473.2,176.5L473.2,176.5z
		 M554.1,175c-0.9,2.2-2.4-0.3-4,0.5v-1L554.1,175L554.1,175z M318.8,176.5c0.7,1.5-1.2,2.4-1.5,3
		C316,178.4,317.1,176.1,318.8,176.5L318.8,176.5z M476.2,177.5l1,1l-0.5,0.5c0.3-0.8-1.3-1.7-0.5-2.5h1.5L476.2,177.5L476.2,177.5z
		 M335.3,178.5c-2.4,1.4-5.1,3.6-8,2c0.8-0.3,0.3-1.7,1.5-1.5c1.1,2.7,2-0.9,3.5-0.5H335.3L335.3,178.5z M316.2,180
		c0.1,0.5-0.2,0.8-0.5,1c-0.6,0-1.3,0.2-1.5-0.5l1-1C315.5,179.8,315.7,180.2,316.2,180L316.2,180z M476.7,180.5
		c-0.5,0.7-2.1,0.1-2-1C475.6,179.1,476.1,180,476.7,180.5L476.7,180.5z M551.6,182c-0.6,0.1-1.2-0.1-1.5,0.5
		c-0.6,1.3,1,1.7,1.5,2.5l-2.5,2c2.4,0.4,5.7-0.9,8-0.5c-1.2,1.2-4.9,1.4-7.5,2c-0.3-0.8-0.2-1.7-1.5-2l-5,3.5
		c-0.2-0.2-0.7-0.5-0.5-1l1-1c-0.3-0.3-0.7-0.5-0.5-1c2.6-1.2,4.1-1.5,6-4l-1-1c0.6-0.6,2.1-0.7,1.5-2L551.6,182L551.6,182z
		 M330.8,182.5l1-1c1,1.2-0.5,2.6-1.5,3.5c-0.6-3.1-6.4,0-4.5-3.5C325.1,184.3,328.8,182.8,330.8,182.5L330.8,182.5z M318.3,183
		c-0.7,1.4-3.8,1.1-3.5,3.5c0.3,0.7,0.9,0.5,1.5,0.5l-2,3l-1-1.5l-2.5,3l-0.5-0.5c2.9-2.6,4-7,7.5-8.5L318.3,183L318.3,183z
		 M542.6,183.5c-0.6,1.8-2.3-1.5-3,1c-0.5-0.5-1.7-1.4-0.5-2C540,183.8,541.8,181.2,542.6,183.5L542.6,183.5z M456.6,185.5l-0.5,0.5
		c-0.6-0.5-1.7-1.4-0.5-2C455.9,184.5,456.8,184.8,456.6,185.5L456.6,185.5z M325.8,185.5l-1,1l1,1l1.5-1.5c1.4-0.3-0.5,2.3-1.5,3
		c-0.2,1.6,1.7,2.3,2.5,3.5l2-1.5l-1,1c0.8,1.6,1.5,0.3,2.5,0l1-1l-0.5-0.5c0.8-2.5,2.8,0,4.5-1.5c-3.4,2.2-7,5.2-9.6,8l0.5,0.5
		h-2.5c1.7-1.8-1.6-4-0.5-6l-1-1c2-1.3,0.3-4.4,1.5-6C325.5,184.8,326,185.1,325.8,185.5L325.8,185.5z M329.8,187.5l2.5-2l-1,2
		H329.8L329.8,187.5z M459.6,185.5h0.5v2h-0.5V185.5L459.6,185.5z M593.8,187.5c-0.3-0.6-1.4-1.4-0.5-2
		C593.8,186.1,594.8,187,593.8,187.5L593.8,187.5z M311.2,188c-0.7,0.6-1.1,1.3-2,1l1.5-1.5L311.2,188L311.2,188z M344.4,189.5
		l2.5-1l-1.5,1H344.4L344.4,189.5z M449.6,190c-0.2,0.7,0.3,1.7-0.5,2c-0.9-0.5-1.5-1.8-0.5-2.5C449,189.4,449.2,189.8,449.6,190
		L449.6,190z M550.1,190c-1.4,2.1-4.4-0.2-5,3c-0.8-1.8-3.6-0.6-5-2v-0.5c0.7-0.6,1.9,0.2,2.5,1C545.2,191.5,547.7,189.2,550.1,190
		L550.1,190z M308.7,191c0.2,0.8-0.7,1-1,1.5h-0.5C307.4,192.2,308.3,191.3,308.7,191L308.7,191z M558.1,193.1h2.5H558.1
		L558.1,193.1z M327.3,195.6l-0.5-0.5l1.5-1.5l0.5,0.5L327.3,195.6L327.3,195.6z M553.6,194.1c-3.7,0-8.9,4.5-11.1,0
		c3.2,0.2,6.7-0.4,9.6,0.5l1-1L553.6,194.1L553.6,194.1z M570.7,194.1l-3.5-0.5h3L570.7,194.1L570.7,194.1z M555.1,196.1
		c-0.3,0.7-0.9,0.5-1.5,0.5l-0.5-0.5c0.6-0.6,2.1-0.7,1.5-2C555.5,194.4,555,195.4,555.1,196.1L555.1,196.1z M583.3,200.1l-6-3.5
		C580.2,196.5,581.9,198.8,583.3,200.1L583.3,200.1z M318.8,203.6c0,0.6,0.2,3-1.5,3l1.5,1.5l-3,4l0.5,0.5c-3.3,1.2-1.4,4.1-4,6
		c0.3,0.3,0.6,0.6,0.5,1l-0.5,0.5c-0.7-2.2-1.3-7,1.5-9l-0.5-0.5l2.5-1.5c-0.3-0.2-0.6-0.7-1-0.5
		C316.3,206.7,318.6,205.6,318.8,203.6L318.8,203.6z M577.2,207.6l0.5-1l1.5,1H577.2L577.2,207.6z M545.6,209.1
		c-0.4-0.1-1.2-1.5-0.5-2C545.5,207.3,546.4,208.7,545.6,209.1L545.6,209.1z M559.1,209.6c-0.4-0.1-0.7,0.2-1,0.5
		c-0.2,0.8,0.7,1,1,1.5l-0.5,0.5l-1.5-1.5c-0.3,0.7-0.9,0.5-1.5,0.5c-1.9-0.7-0.4-2.3-0.5-3.5L559.1,209.6L559.1,209.6z
		 M304.2,221.7l1,1l-2,2c-0.2-3.8,1.6-8.4,4.5-11.1C307,216.6,305,219,304.2,221.7L304.2,221.7z M519.4,218.2c1.4,1.7-1-1.1-1.5,0.5
		l0.5-1.5L519.4,218.2L519.4,218.2z M571.7,219.7l-0.5,0.5l1,1c1.1-0.1-0.4,0.9-1,0.5l-1-1l1.5-1.5l-2-1.5
		C570.5,218.3,572.2,218.4,571.7,219.7L571.7,219.7z M550.6,218.2l3,3L550.6,218.2L550.6,218.2z M595.4,218.7l0.6,3.5L595.4,218.7
		L595.4,218.7z M565.7,219.2l2.5,1L565.7,219.2L565.7,219.2z M529.5,220.7c-0.8-0.2-2.3,0.3-3,1.5l0.5,0.5l-1.5,1
		c-0.2-0.7,0.7-1,1-1.5l-0.5-0.5C526.8,220.6,528.3,219.6,529.5,220.7L529.5,220.7z M563.7,222.7c2.6,1.3,6.4-0.5,8.5,1.5
		c-0.3,0.8-1.7,0.4-1.5,1.5l1.5,1.5c-1.2,0.2-2.8-0.6-3.5,1.1c-1.1-3-5.2-4.1-6.5-5.1c-0.2-1.8-2.2-1.3-2.5-2.5
		C561,221.4,562.7,221,563.7,222.7L563.7,222.7z M309.2,227.8c2.4,0.5-0.7,2.4,1.5,3.5c-2,1.3-0.2,2.3-1.5,4
		c-3.2-2.5,2.1-5.3-0.5-7.5l0.5-3.1l1.5,1.5L309.2,227.8L309.2,227.8z M537.5,226.2l1-1.5l0.5,0.5L537.5,226.2L537.5,226.2z
		 M340.9,226.7c-0.6-0.7-2.1,1.2-3,2.1v2c-2.3,1-1.8-1.7-2.5-2.5C336.8,229.3,339,224.2,340.9,226.7L340.9,226.7z M503.3,226.7
		c-0.2,0.7,0.4,1.7-0.5,2.1v-2.1H503.3L503.3,226.7z M488.3,227.2h0.5v1.6h-0.5V227.2L488.3,227.2z M303.2,230.4l-0.5,0.5v-2.5
		C303.5,228.2,303,229.7,303.2,230.4L303.2,230.4z M543.1,229.3l-1,1c-1.2-0.7,0-1.5,0.5-2C542.9,228.6,543.2,228.8,543.1,229.3
		L543.1,229.3z M569.7,229.8c3.3,1.5,7.1,3,10,4.5c-3.3-1.7-6.1-1.9-9.6-2v1.5c-1.3-0.5-1.3-1.1-2.5-2l0.5-0.5l-2-1.5
		C567.6,227.8,568.4,231.6,569.7,229.8L569.7,229.8z M326.3,232.4l1-2.5v2.5H326.3L326.3,232.4z M497.3,230.8
		c-0.3,0.3-1.2,1.5-2,1.5C495.6,232.1,496.4,230.8,497.3,230.8L497.3,230.8z M548.1,231.4c0.6-0.5-1.1,1-2,0.5
		C547,232.2,547.4,229.9,548.1,231.4L548.1,231.4z M490.8,232.4c1.5-0.8-0.6,1.2-1.5,0.5l0.5-1.5L490.8,232.4L490.8,232.4z
		 M517.9,231.9l1,2.5L517.9,231.9L517.9,231.9z M542.1,232.9c1.6,1.3-1.1-1.1-1.5,0.5H539C540.3,233.5,541.1,230.3,542.1,232.9
		L542.1,232.9z M493.3,234.4l-0.5,0.5l-0.5-2C492.1,233.5,492.9,233.9,493.3,234.4L493.3,234.4z M552.1,237.4c0.2-2.2-4-1.5-2.5-4
		C551.2,233.4,550.6,236.3,552.1,237.4L552.1,237.4z M325.8,235.4c-0.5-0.2-0.8,0.2-1,0.5l0.5-2L325.8,235.4L325.8,235.4z
		 M302.2,235.9l0.5,0.5l-0.5,0.5l-0.5-0.5c1.3-0.7,0.1-1.4,1-2l0.5,0.5L302.2,235.9L302.2,235.9z M575.7,236.4c-1.5-1.3-3.7-0.8-4,1
		C569.6,234,574.4,235.2,575.7,236.4L575.7,236.4z M307.2,236.9l-0.5,0.5v-2C307.3,235.6,307.1,236.3,307.2,236.9L307.2,236.9z
		 M523.5,237.9l1,1c-0.6,0.5-1.1,1.3-2,1l-0.5-0.5c0.9,0.2,1.4-0.5,2-1l-1-1.5l1,0.5L523.5,237.9L523.5,237.9z M308.2,240.4l1,1
		c-0.3,0.3-0.6,0.6-1,0.5c-0.4-1.6-0.2-2.3,0.5-4C309.7,238.1,308.4,239.6,308.2,240.4L308.2,240.4z M515.4,244.4l-2-2.5
		c-1.2,1.6,2.2,4.9,1,5l-3.5-4c1.8-0.5-0.3-2.4,1-1.5l1,1c2.7-1.5-0.8-2.8-0.5-4.5C513.9,239.8,515.9,242.2,515.4,244.4L515.4,244.4
		z M527,239.9c-0.3,0.5-1.2,0.8-1,1.5c0.7,0.8,2,0.3,3,0.5c-0.8,0.6-0.4,1.8-1,2.5l3,0.5c0.9,1.3-1.6,2.6-1,4.5c1.8,0.2,2.5,3,5,2
		c0.3-0.5,1.2-0.8,1-1.5l-3-1l5.5,1.5c-1.8,0.8-5.2,1.5-8,0.5c-0.2-1.5-1.8-1.7-3-1.5c-0.3,0.2-0.7,0.5-0.5,1l-2-1
		c2.1,1.7,4.1-0.9,5-2.5c-0.3-0.7-0.9-0.5-1.5-0.5l0.5-0.5c-1.9-2.8-3.6,2.4-6,0l1-1l1.5,1.5c0.8-1.2,2.8-1.9,2.5-3.5
		c-0.6-0.6-1.1-1.3-2-1l-1,1l-1.5-1.5C524.8,241.2,525.5,239.6,527,239.9L527,239.9z M303.2,241.9c-1.4,1.4,0.8-0.7-1-1l0.5-0.5
		L303.2,241.9L303.2,241.9z M327.3,245.4c0.3,0.5-0.8-2.7,1-3l-0.5-0.5l1.5-1L327.3,245.4L327.3,245.4z M488.8,241.9
		c-1.5,0.1-3,1.8-4.5,0.5c0.4-0.2,3.3,0.5,4-1.5C488.5,241.2,488.9,241.4,488.8,241.9L488.8,241.9z M564.2,248.4
		c-2.3-1.5-3.7-4.3-5-6.5L564.2,248.4L564.2,248.4z M575.7,243.9l-2-1.5C574.4,242.9,575.8,242.7,575.7,243.9L575.7,243.9z
		 M307.2,246.4h-0.5l2-2l-0.5-0.5C308.1,244.4,309.2,246.1,307.2,246.4L307.2,246.4z M486.3,245.4l-1,1c0.2,0.2,0.7,0.5,0.5,1h-1.5
		c1.9-0.8-0.5-1.6,1-2.5C485.7,244.8,485.9,245.1,486.3,245.4L486.3,245.4z M538.5,245.9l0.5-0.5h0.5v1.5H539c0.2-0.6-0.4-1.3-1-1
		h-2C535.9,244.2,538.1,244.8,538.5,245.9L538.5,245.9z M575.2,245.9l-2-1h1L575.2,245.9L575.2,245.9z M491.8,247.9
		c-0.3,0.7-0.3,1.4-1,2v-2H491.8L491.8,247.9z M494.8,248.9l2,0.5L494.8,248.9L494.8,248.9z M498.8,250.5l-0.5-1.5h1.5L498.8,250.5
		L498.8,250.5z M542.1,251l1-1.5v1.5H542.1L542.1,251z M335.9,250l-1,1.5L335.9,250L335.9,250z M524,252.5l-1-2.5l1,1V252.5
		L524,252.5z M300.6,252l0.5-0.5l1.1,2L300.6,252L300.6,252z M528,253.5c-0.3-0.7-0.9-0.5-1.5-0.5c-1.9,1.2-0.1,1.7-2,1.5
		c-0.9-3.3,3.4,0.3,4-3L528,253.5L528,253.5z M565.7,256l-3-3.5C563.9,253.1,565.8,254.4,565.7,256L565.7,256z M538,257.5
		c-0.3-0.3,0.2-2.4,1.5-3V254c-0.7-0.8,1.7,0.3,2.5-1C541.5,253.2,538.3,255.1,538,257.5L538,257.5z M536.5,254.5v-1h1.5
		L536.5,254.5L536.5,254.5z M556.6,254c-0.3,0.9-1.3,0.3-2,0.5l0.5-1C555.5,254.1,556,253.9,556.6,254L556.6,254z M564.2,262.5
		c1.7,3.5,2.8,7.2,5,10.6l-1.5,1c2.8,3.8-2.7,2.4-2.5,6.5l-1-1.5c-0.3,0.2-0.7,0.5-0.5,1c0-0.6-2.2-2.4,0-3l-2-1.5
		c0.8-0.2,1,0.7,1.5,1c1.8-1.8-0.8-4.2,0.5-6.5l-1-1l-1.5,2.5c0-0.6,0.2-1.2-0.5-1.5h-1l1.5-1.5l-1-1l-2.5,2l-0.5-2.5
		c0.8,0.2,1-0.7,1.5-1c0-1.9,0.2-3.3-1.5-5c-0.8,1.8-2.8,0.6-4,1.5c0.7-2.2,2.6-4.2,4-5.5C561.6,255.9,560.7,261.8,564.2,262.5
		L564.2,262.5z M509.4,257.5c0.9,1.7,5.4,2.6,4,5c-1.6,0.3-0.7-2.3-2.5-1.5l-1,1c1.1,0.8,1.5,1.9,2,3c-5.8-0.8,1.8-1.3-3.5-3l-1,1
		c0.3-0.2-0.3-3.2-2-4l-2.5,0.5c0.6-0.3,0.4-1,0.5-1.5C505.7,258.6,507,256.9,509.4,257.5L509.4,257.5z M503.3,261.5l1-1l0.5,0.5
		c-0.8,0.6-2,1.9-1.5,3.5l2,1h-2c0.2-0.8-0.7-1-1-1.5l-1,1c-0.1-0.9-3.1-1.3-1.5-2.5c-0.5-0.3-0.8-1.3-1.5-1l-1,1l0.5,0.5l-2,2
		c-0.1-1.8,2.2-1.9,1-3.5c0.5-0.2,1.8-1.8,2.5,0l2-2C501.8,260.3,502.3,261.4,503.3,261.5L503.3,261.5z M476.7,261.5
		c-0.6,0.7-1.5,0.7-2,1.5l-0.5-0.5C474.9,262,475.7,260,476.7,261.5L476.7,261.5z M319.8,267.1c-0.8-0.3-1.5-2.2-0.5-3
		C320.9,265,318.1,266,319.8,267.1L319.8,267.1z M462.6,265c0.2,2.6-1.5,0.3-2.5,2h-3.5C458.3,266.7,460.6,264.2,462.6,265
		L462.6,265z M325.3,265.5c0.2,0.7-0.7,1-1,1.5v-1.5H325.3L325.3,265.5z M451.6,272.6c-0.2,2.6-4.4,0.9-3.6,3.5
		c-1.6-2.8-3,1.1-5,0.5l-1,1.5c-0.8-1.8,2.9-3.6,1.5-5.5c1.6-0.5,3.3-1.2,4.5-1l-1-1.5C449.3,270.1,449.6,271.7,451.6,272.6
		L451.6,272.6z M560.2,275.6l-3-1c2.7-0.9-1.2-2.4,0.5-3.5C558.5,272.6,558.2,274.5,560.2,275.6L560.2,275.6z M471.2,274.1
		c-0.3,0.6-1,0.4-1.5,0.5l-1-1c-1.9,0.2-1.5,2.8-3.5,2.5c0.2-2,3.4-2,4-4L471.2,274.1L471.2,274.1z M327.3,279.1
		c-2.2,0.8-0.3,2.3-1.5,4c-0.8-2.8-0.6-4.4-2-7.5C324,276.7,325,279.8,327.3,279.1L327.3,279.1z M341.9,278.6
		c-1.3-0.4,0.3-1.7,0.5-2.5C343.4,276.3,342.2,277.8,341.9,278.6L341.9,278.6z M558.1,278.1l1.5-0.5l-1.5,1.5l-1-2.5
		C557,277.3,557.8,277.6,558.1,278.1L558.1,278.1z M603,279.1c-2.5,1.3-1.2,5-3,7c0,4-2.3,8.4,0,12.1l-0.5,0.5c-0.6-1.2-1.2-3-0.5-4
		c-1.2-3.3-4.2,2.7-3.6-2c0.9,0,1.4-1,2.1-1.5c0.8-5,2.6-8.5,4-12.6C602,278.6,602.6,278.4,603,279.1L603,279.1z M315.2,280.6
		c0.3,2.1-2.2,4.9-0.5,7.5l-0.5,0.5c-0.8-1.3-3.1-3.4-1.5-5.5C314.1,282.5,313.6,280.7,315.2,280.6L315.2,280.6z M567.2,291.7
		c-1.3-1.8-0.2-2.8-0.5-5c2-0.9-0.2-1.6,0.5-3C568.4,285.1,567.7,289.8,567.2,291.7L567.2,291.7z M444.4,290.2l-2,2l0.5,0.5
		l-1.5-1.5l2-1.5c-0.3-0.7-0.9-0.5-1.5-0.5v-2.5C443.8,288,441.9,289.5,444.4,290.2L444.4,290.2z M508.4,287.7
		c-0.9-0.3-2.4,0.9-4,0.5C505.2,286.4,507.6,288.2,508.4,287.7L508.4,287.7z M505.4,295.2l1,1l1-1l0.5,0.5c-0.8,1.2-2.8,1.9-2.5,3.5
		l-2-1l-0.5,2c0.2-1.4-2.4-2.3-1-3.5c-0.3,0.9,0.4,1.4,1,2c0.7-1.7,2.8-0.9,3-2.5l-1.5-0.5c1.3-1.3,1.5-3.8,1.5-5l2-1.5
		C508.5,292.3,504.7,292.1,505.4,295.2L505.4,295.2z M323.3,295.2c-0.3,1.5,0.3,2.6,1.5,3.5h1.5c-1.6,4.3,2.7,6.5,5.5,9
		c0.8-0.3,0.3-1.8,1.5-1.5l0.5,0.5c-1.2,0.9-1.8,2-1.5,3.5l0.5,0.5c1.3-0.9,1.3-2.3,3-2.5c1.3,1.5,2.3,2.9,4,4.5l-2.5,0.5
		c1.5,1.7,2.3,4.1,4.5,5l-1.5,1.5l3.5,3.5l-0.5,0.5c0.2,0.9,2.3,2.6,3,0.5c0.6,0.1,1.2-0.1,1.5,0.5l-2,1c1.3,3,5.3,1.9,6.5,5
		c0.6-0.3,0.4-0.9,0.5-1.5l-1-1l3-0.5c2.3-1.6-0.8-3.4-0.5-5.5c-0.8-0.2-1,0.7-1.5,1c-0.6-0.6-1.3-1.1-1-2l1.5,1.5l1-2
		c1.3,0.9,1.3,2.8,3,3l0.5-0.5l-1-1c4-2.1,1,6.9,6,3.5c-0.7-2.3-2.5-5.1-4.5-6c-1.3-1-1.7-4.8-4-3c-1.3-1.4,0.7-2.4-1.5-3.5l0.5-0.5
		l1,1l-0.5,0.5c0.3,0.7,0.9,0.5,1.5,0.5c1.8-1.3-1.4-1.6-0.5-3l2.5,3c0.5-0.3,0.8-1.2,1.5-1l0.5,2.5c0.8,0.1,1.1-0.8,2-0.5
		c-0.5,1.8,0.5,4.2,2.5,5.5c1.3-2.2-2.6-4-0.5-6.5l3,2l-0.5,0.5c0.5,0.9,1.7,0.3,2.5,0.5l1-1l1.5,1.5c-0.9,2.5-5.6-1-4.5,3
		c0.7,0.9,2,0.3,3,0.5l0.5-0.5l-0.5,0.5c3.2,0.8,6.4,3.2,9.6,2.5l-2.5-2l1-1c1.4,0.3,3.4,1.9,5.5,2c6.2-3.5,10.9-5.6,24.6-6.5
		c1.4-1.8,5.1-0.3,5-3.5l-0.5-0.5c0.3-2.8,5.9-0.5,2.5-3.5c1.3,0,1.6-2.1,3-1.5c0.6,0.6,1.3,1.1,1,2l-1,1c3.4-1.4,0.8,3.5,3,4.5
		l1-1.5c2.6,3.6-1,7,2,10.1c1.3,0.8,3.7,0.8,5,0l-2-1l1.5-3l0.5,2l4-2c-3.4,2.2,1.2,4.9-2,7.5c0.3,0.7,1,0.5,1.5,0.5
		c0.2,0.7-0.3,1.7,0.5,2c1.8,0.6,0.9-1,1.5-1.5c2,0.6,3,0.5,4.5-1.5c0.2-0.4-0.2-0.7-0.5-1l4-2c-1.4,2.8,3.7,1.5,2,4.5
		c2.3-0.2,2.5,1.3,4.1,2.5c-1.7-0.3-3.7,1.3-5.6,2c-2.8-1.5-7.5,1.2-9-2c-2.5,0.8-3.6-1.7-5.5-2.5c-0.3-0.9,0.5-3.9-2-3.5l-0.5,0.5
		l1,1h-0.5c0.3,3.7-0.2,7.1,2,10.6c-1.2,1.5,0.1,2.8,0,4l1-1c0,2-1.9,4.1-1.5,6.5c-1.1-0.5,0.8-1.5-1-1.5l-1,1
		c-0.2,2.3,0.4-0.3-0.5-0.5c1.1-1,2.2-2.7,1-4c-1.8-1.5-4-5.6-7.5-4c-0.5,1.8,1,0.9,1.5,1.5c1.3,1.1,2.9,3.8,5,4
		c-0.8,1.7-3.3,1.1-4.5,0.5l-0.5-0.5c-0.3,0.8-1.4,1.3-1,2.5c1.8,2.2,6,3.7,5,6.5c-1.3-0.3-3.7,0.2-5,1.5l1,1l-1.5,1l0.5,0.5
		c-1,0.7-3.5-0.2-3,2c-2.9-0.9-1.7-1.8-2-4c1,0.5,0,2.3,1.5,2c-1.8-2.7,3.3-4.4,1.5-7c-5.5,2.2-11.3,3.9-17.1,5.5
		c-2.9-0.2-3.6-3.2-2.5-5.5c1.8-1.2,7.3,0.7,7-3.5c-1.2-0.8-2.3,0.3-3.5-1c1.3-0.7,2.3-3.9,4-2c1.7-1.2,2.6-3.5,5-3.5l1-1
		c-0.8-1.8-2.6-3.1-4.5-3c-0.4,5.3-5,6.6-9.3,7.7c-2,0.5-6,0.4-10.8-6.2c-0.5-0.9-1.7-0.3-2.5-0.5c-0.3,1-1.4,1.7-1,3
		c1.7,1.2,3,2.1,2.5,4.5c-0.5,0.9-1.7,0.3-2.5,0.5c-1.3-2-3.7-2.5-5.5-1.5l-1.5,1c-0.1-2.6-1.7,0.8-2.5-1c-2.2-1.7-4.6,1.6-6-2
		c1-3.8,10.5-2.4,6-7.5c-1.7,0.2-3.7-0.4-5,0.5v1c-2.8,0.1-6.9-0.6-7.5,2.5c-2.5-1-6.9,0.2-7.5-3l0.5-0.5c-2.1-1.9-4.5-3.1-7-4l-1,1
		l-0.5-2c-1.3-0.1-1,1.3-1.5,2l1.5,1.5l-0.5,0.5c1,0.9,2.7-0.3,2,2l-1,1c1,1.4,1.8,1.4,3,0.5h0.5v1c-0.9-0.3-1.4,0.5-2,1l1.5,2.5
		c2.2-5.4-0.3,0,3,4l0.5-0.5c0.4,4.7,8.2,39.2,8.6,41.3c0.8,1.6,2.1,2.4,4,3.5c-0.6,1.2-2.7-0.4-2.5,1.5h3l-1,1
		c0.3,0.8,1.8,0.3,1.5,1.5l-0.5,0.5c3.7,1.2-0.8,3.2,0,4.5l2,1c-1.8,0.8-4.4,1.7-3.5,4l1.5,2l-0.5,0.5l-1-1
		c-0.7,0.3-0.5,0.9-0.5,1.5l1,1l-0.5,0.5c3.6-1.3,0.9,4,4,3l-1,1c0.2-1.6-2.5-2.5-3.5-4c-0.6-0.1-1.2,0.1-1.5-0.5
		c-2,3.6,7.2,4.1,3.5,8c-1.5,1.1,0,2.8-1.5,4c0.8,4.6,3.8,8.2,4,13.1c0.3,0.5,1.2,0.8,1,1.5c-0.3,0.6-0.9,0.5-1.5,0.5
		c-5.1-7.7-6.5-17-10.6-25.1c2.9-3.4-3.2-5.5-2.5-9.1h-1c1-1.5-7.2-26.9-10.6-34.8c-3.4,0.6,0.8-2.4-2-2.5l-0.5-2l-1,1
		c-0.9-0.4,0.7-2,1-3c1.3-0.6,0.9-1.8,1-3l-1.5-0.5c1.1-2.5,1.8-4.7,0.5-7c-1.1,1.5,0.3,6.4-3,4.5c-11.8-9.8-4.4-21-10.6-29.7
		l-0.5,0.5l-0.5-0.5l0.5-0.5l1,1c0.6-0.3,0.4-0.9,0.5-1.5l1.5,1c0.7-2.6,1.1-4.9-1-6.5l-1.5,5l-0.5-4h-0.5c-1.2-1.3,2.4-4.6-0.5-4.5
		l-2.5,2.5c-2.8-0.8,0.2-3.2-1.5-5c0.2-2.3-1.5-4.4-1-6.5c-0.3-0.5-1.3-0.8-1-1.5l0.5-0.5c-0.7-0.7-1.5-0.7-2-1.5
		c-0.7,0.5-1.1,1.3-2,1l-0.5-0.5c2.1-0.7,2-2.7,3-4c-0.4-0.9-1.4-0.3-2-0.5c-1.5-1.6,1-2.9-1.5-4l0.5-0.5l1.5,1.5l0.5-2.5
		C320,289.9,321.4,293.2,323.3,295.2L323.3,295.2z M442.9,296.2c-1,0.1-1.8-0.1-2.5-1l2.5-1V296.2L442.9,296.2z M530,297.7l-1.5-1.5
		c0.5-0.9,1.7-0.3,2.5-0.5L530,297.7L530,297.7z M343.9,297.2c-0.2,0.5,0.2,0.8,0.5,1l-0.5,0.5l-1-1.5H343.9L343.9,297.2z
		 M442.4,298.7c-0.2,0.6-0.9,0.5-1.5,0.5v-1C441.5,298.2,442.2,298,442.4,298.7L442.4,298.7z M418.8,300.7c0.1,1.3-0.1-0.5,0.5-0.5
		l-1-1l0.5-0.5l1,1L418.8,300.7L418.8,300.7z M532.5,305.8c0.5-0.2-1.2-5.6,1.5-7C533.6,301.1,535.1,304.2,532.5,305.8L532.5,305.8z
		 M416.3,299.7l0.5-0.5l0.5,1.5L416.3,299.7L416.3,299.7z M344.4,302.2h-0.5v-2.5C343.7,300.7,345.9,301.3,344.4,302.2L344.4,302.2z
		 M441.4,305.3c-0.6-1.5,0-2.2,0.5-3.5L441.4,305.3L441.4,305.3z M522.4,303.8l1.5-2l-0.5,2H522.4L522.4,303.8z M416.3,303.2l0.5-1
		l3,0.5L416.3,303.2L416.3,303.2z M504.8,303.2c-1.8,0.1-1.2,2.1-2,3c2.5,1.9,4.1-2.5,7-1c0.3-0.5,1.2-0.8,1-1.5c0.5,1.4,2,0.8,3,0
		c-1.6,0.7-0.8,2.3-1,3.5c-3.9-2.5-6.5,2.3-11.1,0l-1.5,1.5l-1-1l0.3,0.4l-5,3.5l-0.3-0.4c3.2-0.6,3-4.9,7-4.5c1-0.6,1-1.7,1.5-2.5
		l-0.5-0.5C504.1,304.8,503.3,301.3,504.8,303.2L504.8,303.2z M341.9,307.3c-1.3,0.6-1.6-1.1-1.5-2
		C340.9,305.9,342.5,305.9,341.9,307.3L341.9,307.3z M442.4,308.8c-0.3,0.9-1.3,0.3-2,0.5l-0.5-0.5l1.5-2
		C442,307.4,442.8,307.9,442.4,308.8L442.4,308.8z M329.3,310.8v-3.5l1.5,2L329.3,310.8L329.3,310.8z M552.1,310.8
		c-0.3,0.2-0.5,0.7-1,0.5l-1.5-1.5C550.8,308.8,551.9,309.4,552.1,310.8L552.1,310.8z M336.9,311.3c-0.8,0.1-1.5-1.2-2,0
		c-0.2,1,0.1,1.9,1,2.5c-1.6,2.3,1.3,0.5,2,1.5l-1.5,2.5c-0.2-0.8,0.4-2-0.5-2.5h-1c0-0.6-0.2-1.2,0.5-1.5c-1.5-0.5-1.5-3,0-3.5
		C336,310.1,336.4,311,336.9,311.3L336.9,311.3z M443.4,314.3c-0.3,0.7-0.9,0.5-1.5,0.5l-0.5-3.5h-1c0-0.6,0.9-0.9,1.5-1
		C442.6,311.5,441.8,312.8,443.4,314.3L443.4,314.3z M492.3,310.8c-1.4,1.9-1.2,0.1-2.5,2c0.6,0.3,0.4,0.9,0.5,1.5
		c-0.8-1.2-2.4-0.1-2.5,1l-7.6-0.5c0.8-4,3.9-0.2,5.5-3.5C487.2,313.4,490.1,309.4,492.3,310.8L492.3,310.8z M600.5,311.3
		c-1.1,0.2-1.7,1.3-2.5,2C597.2,313.5,599.1,310.9,600.5,311.3L600.5,311.3z M417.3,312.8l-1,1c-1.9,0.7,1.8-1,0.5-2
		C417.1,312,417.5,312.3,417.3,312.8L417.3,312.8z M347.4,312.8c-0.5,0.3-0.8,1.2-1.5,1l-0.5-0.5C346,313,346.8,311.8,347.4,312.8
		L347.4,312.8z M513.9,312.8c0.8,1.5-1-0.9-1.5,1C511.6,314,513,312.1,513.9,312.8L513.9,312.8z M342.4,316.8l-2.5-2.5l0.5-0.5
		l2.5,2.5L342.4,316.8L342.4,316.8z M555.6,313.8c1.2,3-3.4,4-5,6C552.3,317.8,553.8,315.3,555.6,313.8L555.6,313.8z M346.4,314.8
		c-0.2,0.7,0.4,1.7-0.5,2l-1-2H346.4L346.4,314.8z M349.9,316.3l-0.5,0.5l-0.5-2C348.8,315.6,349.6,315.8,349.9,316.3L349.9,316.3z
		 M442.4,319.3c-1.3-1.3-0.5-2.1,0-3.5l0.5,0.5l1-1C442.1,315.6,443.7,318.2,442.4,319.3L442.4,319.3z M323.3,318.3l-0.5,0.5v-2.5
		C323.7,316.7,323.1,317.7,323.3,318.3L323.3,318.3z M372,318.3l-0.5-1.5h1L372,318.3L372,318.3z M345.4,320.3l-2.5-2.5l0.5-0.5
		C343.8,318.8,347,318.6,345.4,320.3L345.4,320.3z M555.6,318.8c0.6,0.6,1.3,1.1,1,2c-0.6,0.7-1.4,0.7-2,1.5l1,1
		c-0.8-0.7-2.4-0.6-2.5-2c3.2,0.4,0.8-3.3,3.5-4C556.8,318.1,556,318.3,555.6,318.8L555.6,318.8z M352.9,319.8
		c1.1-0.1-0.5,0.8-1,0.5v-1.5L352.9,319.8L352.9,319.8z M337.4,320.3h0.5v2.5h-0.5V320.3L337.4,320.3z M448,323.4
		c-0.3,0.3-0.5,0.7-1,0.5l-1-1l1-1C447.4,322.4,448.2,322.7,448,323.4L448,323.4z M421.3,322.9h0.5v2h-0.5V322.9L421.3,322.9z
		 M338.9,327.9l-0.5-0.5c-2.3,0.8,0.2,2.3-0.5,3c0.3,0.7,0.9,0.5,1.5,0.5c-1.1,0.7-1.2,1.7-0.5,2.5h-1.5c-0.2-2.7-1.8-8.3,2-10
		C341,323.9,338.5,327.2,338.9,327.9L338.9,327.9z M502.8,327.4c-1.6,0-2.4-1.7-4-0.5c-1.8,2.4,2.6,4.6,2.5,7.5
		c-0.9-0.3-1.4,0.5-2,1c2.4,1.4,7.5-0.9,9.6,2.5c-3.2,1-6.4,2-9.6,3c1.5,3.4,7,1.5,7.5,6h1c-1.4,0.8-0.2,3.5-2.5,3l-1-1
		c-0.5,0.7-1.6,1.2-1.5,2l0.5,0.5c-1.8-0.2-3.3-1.4-4-3l-3.5,4c1,1.7,2,3.4,3,5l1-1l-0.5-0.5c0.6,0,1.2,0.2,1.5-0.5
		c-0.3,1,0.4,1.4,1,2c1.2-0.8,1.9-2.7,3.5-2.5c-0.9,0.3-0.3,1.4-0.5,2c0.7,1.7,2.8,0.9,3,2.5c-0.3-2.3,2.8-1.8,3-4
		c-0.2-0.3-0.7-0.5-0.5-1c2.5,1.8-2.7,2.9-0.5,5.5c-1.4,0.8-1.2,2.3-2.5,3c0.3,0.7,0.9,0.5,1.5,0.5c-1.6,1.7,1.3,1.3,1,3
		c0.8,0.7,1.9,0.6,2.5-0.5c-0.3,0.9-1.4,1.4-1,2.5l1,1c0.3-0.8,1.3-0.3,2-0.5c-0.8,2.9-2.4,3.2-4.5,5l1,1.1l-3,3l1,1l0.5-0.5
		c0.1-0.2-0.4,2.1,1,2.5h1.5c0.2,0.7-0.7,1-1,1.5l1,1l0.5-0.5c-2.7,0.3-1.5,3.5-4.5,3l-1-1c-1.9,0.8-0.3,2,0,3
		c-0.5-0.2-0.8,0.2-1,0.5c-1.2,2.8,4.1,2.3,2,5v1.5c-9.6-6.9-11.8-11.8-17.6-21.7c-0.2-1.9-1.7-4.4-2.5-6.5c0.4-1.7-2.2-3.9-0.5-4.5
		c0.8-2-1.7-2.6-2.5-4c-0.3,0.7-1,0.5-1.5,0.5l0.5-2.5c1.9-0.6,3.4,2.3,5,0l-1-1c1.9-0.4,2.8-3,2-4.5v-0.5c1.9-0.6,1.1,1.6,2.5,2
		l2.5-3c-1.3-1.8-3.8-1.1-5.5-2c-1.7-1.8-2.1-6.1-5-5.5v1.5l-2.5-6.5c2.9-2.6,6.7-1.4,9.6-1c1.2,0.2,1.8-2.7,3-1l1-1l-1-1
		c-0.3,0.3-0.6,0.7-1,0.5C488.8,325.4,503.2,321.4,502.8,327.4L502.8,327.4z M452.6,328.4c-0.3-0.9,0.4-1.4,1-2l-0.5-0.5l1-0.5
		C454.8,326,454.5,328.7,452.6,328.4L452.6,328.4z M509.9,329.9l-4,0.5v-1C507.1,329.7,508.4,330.1,509.9,329.9L509.9,329.9z
		 M386.6,331.4c-1.5,1.3-4.2,1.8-6.5,1c-1.4,0.5-2.1-0.7-3-1.5h-4.5C377.2,331.1,382.3,330.5,386.6,331.4L386.6,331.4z M388.1,331.9
		l2-0.5l-0.5,0.5H388.1L388.1,331.9z M596.4,333.4h0.5v2h-0.5V333.4L596.4,333.4z M594.8,339.4c-1.1-1,0.2-2.2,1.1-3
		C596,337,596.3,338.9,594.8,339.4L594.8,339.4z M336.4,340.9l0.5-2.5l1.5,1.5L336.4,340.9L336.4,340.9z M540.5,346
		c-1.7,2.3-2.8-0.2-4,2c0.6,0.6,1.1,1.3,2,1c-0.2,0.3-0.7,0.6-0.5,1c-1.3,0.1-2.1-3-3.5-1.5l1,3c-2.8-2.6-3.1,3.6-5.5,0.5
		c-2.8,0.1-0.8,3.9-3.5,3.5c0.2-0.7-0.7-1-1-1.5l-1.5,1.5c0.2-1-0.1-1.9-1-2.5l1.5-1.5L524,351c2.3-1.3,1.3-2.8,2-4.5
		c0.2,0.3,0.5,0.7,1,0.5c0.3-0.5,1.2-0.8,1-1.5l-1-1c1.8-0.8,2.2,1.4,3.5,1.5l0.5-2.5c0.3,0.3,0.5,0.7,1,0.5c0.9-0.3,0.3-1.3,0.5-2
		c1.2,0.5,3.4,1,3.5-1C537.9,342,541.1,343,540.5,346L540.5,346z M536.5,345c-1.3-0.2-3,0.8-3,2.5
		C531.2,344.7,535.5,344.4,536.5,345L536.5,345z M483.2,345c-0.3,1,0.4,1.4,1,2h-1c0.5-1.1-0.8-1.8-1.5-2H483.2L483.2,345z
		 M533,350.5l-0.5,0.5c-1.1-0.9-3.2-3-2.5-4.5C530.2,348.6,533.3,348.2,533,350.5L533,350.5z M485.2,348l1.5-1l-0.5,2L485.2,348
		L485.2,348z M510.4,350.5l1-2.5v1.5L510.4,350.5L510.4,350.5z M497.3,349.5l-1,1l0.5-2C497.1,348.8,497.5,349.1,497.3,349.5
		L497.3,349.5z M513.9,350h-1l2-1.5C515.1,349.3,514.2,349.5,513.9,350L513.9,350z M482.7,352l0.5-0.5l-2,1c0.6,0.8,0.2,1.9,1,2.5
		c-0.8,0.3-1.5,0.3-2,1c-1-2.4,0.2-4.6,0.5-7C481.4,350,481.5,351.3,482.7,352L482.7,352z M516.9,349h0.5v1.5h-0.5V349L516.9,349z
		 M528,350.5c0.6,1.3-1,1.7-1.5,2.5l-0.5-0.5C526.1,351.7,527.1,350.7,528,350.5L528,350.5z M521.4,351.5c-0.7,0.3-0.5,1-0.5,1.5h-1
		C521,352.7,519.7,350.8,521.4,351.5L521.4,351.5z M498.3,352l1,1.5L498.3,352L498.3,352z M507.4,356c0.2-0.7-0.7-1-1-1.5l0.5-0.5
		l-1.5-2C509.1,351.7,505.8,354.4,507.4,356L507.4,356z M426.3,355.5l-0.5,0.5c0-0.9-2-1.7-1-2.5
		C425.3,354.2,426.4,354.7,426.3,355.5L426.3,355.5z M520.9,357c-1.8,0.7-1.7,3.7-2,3.5c0.2-2.3-3.4-0.3-2-3l2-2
		C518.3,357.9,520.8,356.1,520.9,357L520.9,357z M523.5,358.1l-1-1.5h1V358.1L523.5,358.1z M488.3,359.6v0.5h-1.5v-1.5
		C487.4,358.4,487.8,359.2,488.3,359.6L488.3,359.6z M514.9,360.6l-0.5-2h1L514.9,360.6L514.9,360.6z M554.6,359.6h-1v-1h1V359.6
		L554.6,359.6z M408.2,362.6l0.5-3l2,1L408.2,362.6L408.2,362.6z M508.4,360.6c-0.5,0.4-0.8,1.3-1.5,1l-0.5-0.5
		C506.9,360.6,507.8,359.5,508.4,360.6L508.4,360.6z M508.9,366.6l-0.5,0.5h2l-2,2l-0.5-2.5l-1,1c0-0.8-0.5-1.6-1.5-2.5
		C507.4,363.1,506.9,366.8,508.9,366.6L508.9,366.6z M375.6,375.2c-0.4-0.2-1.3-1.6-0.5-2.1C376,373.5,375.4,374.5,375.6,375.2
		L375.6,375.2z M560.7,375.7l1-1.1l-2,2.1l1,1c-2.6,0.7,1-3.3-1.5-4.6C561.7,373.3,558.3,375.1,560.7,375.7L560.7,375.7z
		 M381.1,381.3c-0.2,0.9-1.2,1.6-1.5,2.5l-1.5-2C378.7,380.5,380.3,380.4,381.1,381.3L381.1,381.3z M558.1,387.3
		c-0.9-2.6-2.8,1.1-0.5-1.5l-1.5-1C558.7,385.3,557.9,385.3,558.1,387.3L558.1,387.3z M555.1,386.3c-0.3,0.5-1.2,0.8-1,1.5
		c0.5,0.3,0.8,1.2,1.5,1l0.5-0.5l-0.5,2c2.7-1.4,0.9,2.9,3.5,3.5c-1.2,1.1,0,2.4,0.5,3.5c-0.3-0.3-3.7,2.4-1,3.5v0.5h-1
		c0.4-2.6-1.9-4.2-2-6.5l-1.5,1.5c-2.2,0.8,2.4-1.5,0.5-2.5l-1,1l-1-1c1-0.5,2.9-0.9,2.5-2.5c0.7-2.3-2.3-2.9-2-5
		C554,386.9,554.5,384.9,555.1,386.3L555.1,386.3z M384.1,388.3c0.8-1.1,1.5,1,2.5,1c0.6,1.3-1,1.3-1.5,2c1.3,1.7,2-1.1,3.5-0.5
		c0.9-0.5-0.8-2.2,1-2l0.5-0.5l0.5,0.5c-1.5,1.1-1.2,2-0.5,3.5c1.7,0-0.1-1,1-1.5c-0.7,0.8,1.7,2.2-0.5,3c0.3,0.6,0.9,0.4,1.5,0.5
		l1-1l0.5,0.5c-2.4,1-3.3,4.5-6,5c-1.1-0.5,0.7-1.6-1-1.5l-1,1l-1-1c-1.4,0.1-1.3,1.7-2,2.5l2,0.5c-0.3,0.2-0.5,0.7-1,0.5l-1-1
		c-0.7,0.6-0.7,1.4-1.5,2l2,0.5l-1,2c3.2,0.9,1.8-1.5,4.5-3l-0.5-0.5c1.3-1.7,1.5,1.2,2.5,1c-1.6-0.8-2.7,1.4-4,2.5l0.5,0.5l-1.5,1
		c0.8,0.7,1.4,1.8,2.5,2c0.8,3.2-9.1,5.1-3,6c-1.2,0.8,0.4,3.6-2,3c-0.2-1,0.4-2.3-0.5-3c-1.7-0.1,0.2,1-1,1.5
		c-0.8-0.3-1.5-0.7-2.5-0.5l2-1c-0.6-0.7-1.5-0.7-2-1.5l1-1c-0.3-0.3-0.7-0.6-0.5-1c2.7-1.1-1-2.1-0.5-3.5l-1.5,1.5
		c-1.7-1.3,1.2-1.8,1-3l-1.5-0.5c1.2-2.9,3.2-5.9,5-8c0.1-0.8-0.8-1.2-0.5-2l1-1l1,1c2.4-1.8-0.2-3.3,3-4c-0.5-0.9-1.7-0.4-2.5-0.5
		l-1.5,1.5c-0.6-0.3-0.5-1-0.5-1.5C381.2,389.1,381.8,383.5,384.1,388.3L384.1,388.3z M491.8,392.8c0.5,0.3,0.8,1.2,1.5,1l-1.5,1.5
		c3.6,0.4,0.6,2.7,1.5,5c-0.8-0.3-1,0.7-1.5,1c1.5,0.9-0.7,1.5-0.5,2.5l-2-1.5c-3.7,1.3,0,6.4-4,6.5c-0.8-1.6-0.6-4.6-1.5-5
		c1.3,0.7,1,2.4,2.5,2.5c1.4-1.3,1.3-3.4,2-5c-4-1.6,1.5-4.1-2.5-6h-2c0.8,0,1.3-1,2-1.5l-0.5-2.5c0.4,0.1,0.7-0.3,1-0.5
		c-0.2-2.3-1.5,0.5-1-2l1-1l-0.5-0.5C490.2,384.8,489.2,391.1,491.8,392.8L491.8,392.8z M367.5,390.3l-1-1l0.5-0.5l-1-1
		C366,388.8,369.3,388.6,367.5,390.3L367.5,390.3z M419.3,390.8c-3.2,5-4.1,11.1-5,17.1c-2.7,3.4-6.9,7-8,11.6c-1.1,3.4-4-0.8-5.5,2
		c-2.6,1.4-0.8,5-3.5,6c-0.1,1,0.1,1.9,1,2.5l-0.5,0.5c-1.6-0.6-0.9-3-2.5-4c1.8-0.8,0.8-2.8,0.5-4c-1.1-1.1-2.2-2.7-1-4
		c0.4-0.4,2.7,0.4,2-1.5l-0.5-0.5c2.9,0.8,1.8-2.6,3.5-3.5l1.5,2.5c1.8,0.1,0.5-1.9,1.5-2.5c-3.4,1.3,0.7-2.2-2-3l3-0.5l-1-1
		l1.5-1.5l-1-1l0.5-0.5l-1-1c0.6-0.7,2.1-0.7,1.5-2c-0.9-0.3-1.6-0.1-2-1.5l0.5-0.5c0.5,0.3,0.8,1.2,1.5,1c-0.4-4.1,4.8-4.1,6.5-7.5
		l0.5,0.5c0.3-0.3,0.7-0.6,0.5-1l-1.5-1.5c3-1,4.6-2,7.5-3L419.3,390.8L419.3,390.8z M417.8,390.8l-2.5,0.5
		C414,392.1,417,389.6,417.8,390.8L417.8,390.8z M557.6,395.3c-0.4-0.2-1.3-1.6-0.5-2C557.5,393.9,558.7,394.8,557.6,395.3
		L557.6,395.3z M369,396.3c0,0.5,0.1,1.2-0.5,1.5l-0.5-1.5H369L369,396.3z M373,399.4c-0.5-0.6-3.3,1.4-3-1.5L373,399.4L373,399.4z
		 M361,403.4c-0.7-2.7-5.5-0.8-3.5-4L361,403.4L361,403.4z M405.7,401.9c0.2-0.8-0.7-1-1-1.5c0.3-0.9,1.3-0.3,2-0.5L405.7,401.9
		L405.7,401.9z M488.3,400.9l-0.5-1h2.5L488.3,400.9L488.3,400.9z M392.2,403.9c-1,1.5-2.8,0-4,0.5
		C389.1,403.5,390.8,404,392.2,403.9L392.2,403.9z M382.6,405.9c-0.5-0.2-0.8,0.2-1,0.5l-1-1C381.5,404.9,382.2,404.6,382.6,405.9
		L382.6,405.9z M480.7,406.9l-0.5,1.5L480.7,406.9L480.7,406.9z M377.1,416.4l-1.5,1C375.3,417.9,375.8,414.5,377.1,416.4
		L377.1,416.4z M436.4,421c-1.8,0.8-5-1.1-6.5-2.5l1-1.5C434.3,416.8,433.3,422.1,436.4,421L436.4,421z M368.5,421
		c-1-0.3-1.4-1.3-0.5-2h0.5V421L368.5,421z M558.1,428c-1.3-1.3-3.3,2-2.5,2.5c-0.8-1.8,1.2-3.4,2-5.5
		C557.2,426.3,558.7,426.7,558.1,428L558.1,428z M456.1,430.5c-0.7,0.8-1.8,0.4-2.5,1C453.7,430.4,455.2,429.4,456.1,430.5
		L456.1,430.5z M400.2,433l1,1l-2,1c3.9-0.6,3.4,2.8,6.5,4l1-1.5c0.2,0.8,0,2.8-1.5,3.5c0.6,0.5,1.1,1.3,2,1l0.5-1.5
		c-0.2,0.5,0.2,0.8,0.5,1c1.8-0.1,0-2.3,2.5-1.5c2-4.3,6.3-2,8.5-3c1.1,1.2,2.5,1.7,3.5,3c-4.8,0.8-9.9,8.7-14.6,2.5l-0.5,2.5l-1-1
		c0.3,1.2-1.6,3.1,1,3.5l-2,2l1,1c-1.1,1.2-2.2-0.6-2.5,1.5l-1.5-1.5l0.5-0.5c-4.5-2.7-0.1-5.3-3-8.6c-0.3-0.8-0.2-1.7-1.5-2
		c2.7-2.4-5.1-7.1,0.5-8l0.5,2L400.2,433L400.2,433z M555.1,433c-2.3,0.3-1.4,2.8-3,4c-3.9,2.7-4.1,8.4-8,11.1c0.9,0.8,1.6,2,3,1.5
		c-0.8,0-1.3,1-2,1.5l2.5,2.5c3.1-1.9,2.2-7.4,7-4.5l1-1l-1.5-1.5c-1-1.2,1.8-0.1,1.5,1c0.6,0.5,1.1,1.3,2,1c0.8-1.2-0.6-3.1-2-3.5
		v-0.5c2.2-0.3,1.8,2.3,3.5,3c-1.4,0.8-1.2,2-0.5,3.5c1.5,0.8,3-1.3,4.5-2c-0.2,0.8-0.7,3.3,1,4.5l-0.5,0.5c-1.2-1.1-1.7-2.5-3-3.5
		l-1,1c2.3,1.4,3,4.4,4.5,6.5c-0.5,8.3,1.3,19.8-1.5,26.7c0.7,1.7-1.7,3.3-1,5.5c-6.5,2.6-14,2.9-20.6,5.5c2.3-4,6.8-7.2,8.5-11.6
		c-0.7-1.9-2.4-0.4-3.5-0.5l-17.6,15.6c-9.1,2.2-18.4,3.6-27.2,6.5c-7.5,1.4-14.8,3.3-22.1,5c17.7-8.3,36.4-21.8,48.8-40.2l-0.5-0.5
		c5.5-8.3,10.9-18.7,18.6-25.1c-0.6-0.3-0.4-0.9-0.5-1.5c2.5,0.5,1.3-2.8,3-3c2.4-2.8,3.3-6.5,5.5-8.5L555.1,433L555.1,433z
		 M522.9,437.1c-2,2.9,1.9,4.9-1,7c0.2,0.2,0.5,0.7,1,0.5c0.3,1.9-4.4,1.9-2,4.5v1.5c-0.8-0.2-1,0.7-1.5,1l1,2
		c-0.5,0.2-0.8-0.3-1-0.5c-1.2,0.7-1,1.9-1,3c-0.9-0.3-1.4,0.5-2,1c0.3,1.3,1.4,2.4,1,4c-1-1.3,0.2-5.1-3-5c2.2-2-3-2.8-0.5-5
		c-0.7-0.6-1.9,0.2-2.5,1v2.5c-0.5-0.2-0.8,0.3-1,0.5c-0.7-4.4-5.5-2.8-7.5-6c-4.1,2.3,1.5,3.9,1.5,6c0.6,0,1.2,0.2,1.5-0.5l-1-1
		l1.5,1.5l-2,1.5l-0.5-0.5c-0.7,2-2.7,0.8-3,3l0.5,2.5h-0.5l0.5-0.5c-2.9-0.1-2.3-7.5-5.5-3c0.2,1.3-0.6,2.8,1,3.5
		c0.3-0.6,0.9-0.5,1.5-0.5c-1.3,1.2,0.5,3.7-1.5,4.5c-0.5-0.8-0.5-1.9-1.5-2.5h-1c0.7-1.1,2.3-3.1,0.5-4c-2.4,2.3-5,2.8-6,6l-4-2.5
		l1-1.5c-0.6,1.3,1,1.7,1.5,2.5c2-1.7,5.5-1.8,6-5c2.4,1.3,4-2.4,4-4.5l-0.5-2.5c-0.3,0.5-1.2,0.8-1,1.5c-2.1-2.4,2.3-4.7,1.5-8
		c5.3-0.2,10.9,2.1,15.1-3c0.7-2.8-1.7-7.8,2-8.6C515.9,437,522.2,432.9,522.9,437.1L522.9,437.1z M371,440.1c-2.3,1.3-2-2.3-3-3.5
		l0.5-1C370.1,436.3,370.2,438.6,371,440.1L371,440.1z M585.8,443.6c0,0.6,0.2,1.2-0.5,1.5c-0.1-1.9-3.6-2-3.5-4.5
		C582.4,442.2,584.1,443.4,585.8,443.6L585.8,443.6z M373,444.1c3.4,7.6,9,14.7,14.1,21.1l1-1c-0.2-0.2-0.7-0.5-0.5-1
		c2.9-1.2,0.7,2.2,3.5,2.5c0.3-0.5,1.2-0.8,1-1.5l-0.5-0.5l0.5-0.5c1.4,2.4-0.9,7.1,2,9.6c1.3-1.3-0.8-4.2,2-3l-1,1
		c2,1.4-1.8,2.3,0,3.5v1c-2.6-0.5-2.8-2.4-4-4.5c0.2-0.3,0.7-0.5,0.5-1l-1-1l-0.5,0.5l-2.5-3c-1.5,0.9,0.9,2.4-1.5,2l-5-7
		c-3.3,1.1,0.3,4.3-2,5.5c0.9,5.5-1.8,9.5-2,14.6l1.5,1.5c-1.7,1.3,1,2.1,0.5,3.5c-0.3,3.9,0.7,6.6-0.5,9.6
		c1.3,6.8,1.8,11.5,1.5,17.6l1.5,1.5l-1,1c0.2,0.3,0.5,0.7,1,0.5l-2,1l1.5,1c-0.4,1.7,1,2.7,0.5,5.1l0.5,0.5c-0.9,0.6-1.1,1.4-1,2.5
		l0.5,0.5c-0.6,0.7-1.5,0.6-2,1.5c2.3,0.8,2.1,4.1,1.5,5.5h-1l1-1c-0.3-0.7-0.9-0.5-1.5-0.5c-0.2-0.8,0.7-1,1-1.5
		c-0.3-0.9-1.3-0.4-2-0.5c-0.1-1.3,0.5-2.1,1-3c-0.2-0.3-0.5-0.7-1-0.5c-0.3-1.3,0.5-2.3,1.5-2.5c-0.9-1.9-2.3-0.8-3.5-1.5
		c0.6-0.8,1.5-0.7,2-1.6c-1.8-1.3-0.6-3.9-3-5l1.5-1c-0.4-1.3-2.7-0.7-2-2.5c0.5-1,2.2,0,2-1.5c-6.2-0.6,1.7-5.5-3.5-7
		c-0.7,0.7-0.7,1.5-1.5,2h-1l1.5-1.5l-3-2.5c0.3-0.6,0.9-0.4,1.5-0.5l1,2l1.5-2c-0.4-0.8-1.8-0.3-1.5-1.5l1-1
		c-0.3-0.6-0.9-0.4-1.5-0.5c1.2-2.4-3-4.2-2.5-6.5c0.5,0.2,0.8-0.2,1-0.5c-0.3-0.9-1.3-0.3-2-0.5c0.3-1.6-1.5-2-2.5-2.5l1.5-1l-3-1
		l3-4c-0.6-0.7-1.5-0.7-2-1.5c2.8-1,0-2.8-0.5-4.5l-1,1c0.2,0.3,0.7,0.6,0.5,1c-0.3,0.7-0.9,0.5-1.5,0.5c-0.3-1.3-1.1-3.1-1-4
		c-0.8,0.4,2.3-0.1,2,1.5c0.5-2.3-2.7-4.9-1.5-7.5c-0.3-0.6-0.9-0.4-1.5-0.5c1.2-0.5,0.5-1.4,0-2.5c-0.5-0.2-0.8,0.3-1,0.5
		c-0.2-0.8-0.3-1.5-1-2.5H358c-1.9,1.9,1.8-1.7,0.5-2.5c1.5-1.1,5-1.2,3-4l-0.5-0.5c-0.9,2.5-4.4,2.5-4,5.5c-0.8-0.2-1,0.7-1.5,1
		c-0.3,0.9,0.4,1.4,1,2l-0.5,0.5l-0.5-1.5c-1.2-0.8-1.7,1.5-2.5,0c1.7-0.8,0.8-2.5,2-3.5l-0.5-0.5l-6.5,7.5c1.7,2.8-2.7,2.7-4,4
		c-2.4,2.8-4.6,3.9-7,5.5l-1,2l-1-1l3.5-3.5c-0.3-0.6-1-0.4-1.5-0.5l1.5-1.5c-0.5-0.9-2.1,0.9-2-1c0.8-0.6,2,0.7,3,1l0.5,0.5
		c2.5-2-2-4.9,2.5-6l-2.5-0.5l1-1.5c5.2-3,10.8-4.9,15.6-9.1c0.8-0.1,1.1,0.8,2,0.5l2-2l-0.5-0.5c1.3-3,4.5-3.5,6.5-6
		c-1.4-1.2,1.2-2.2,1-3.5c3.2,0.5,0.6-3.5,3.5-3.5C372,442.3,371,444.7,373,444.1L373,444.1z M595.9,442.1c0.1,0.5-0.3,0.8-0.6,1h-1
		v-1.5C594.9,441.6,595.6,441.4,595.9,442.1L595.9,442.1z M559.6,444.1c0.1,0.6-2.1-0.9-1.5-2L559.6,444.1L559.6,444.1z
		 M457.1,446.1c-3,2.3-8.7,0-13.2,0c-1.5-1.4-3.6-1.3-5.5-2c6.5,0.8,10.6-1.7,16.2,1.5C455.1,444.9,456.3,445.6,457.1,446.1
		L457.1,446.1z M602,446.6l-2,1c-1-1.5-1.6-2.9-3.5-3C598.6,442.1,600.7,445.3,602,446.6L602,446.6z M549.1,446.6
		c0,0.6,0.2,1.2-0.5,1.5l-1-1.5H549.1L549.1,446.6z M604,448.6c-0.7,0.5-1.1,1.3-2,1l-0.5-0.5l1.5-2
		C603.3,447.6,604.1,447.9,604,448.6L604,448.6z M477.7,448.6c-0.1,0.6,0.1,1.2-0.5,1.5h-0.5v-2C477.1,448,477.4,448.4,477.7,448.6
		L477.7,448.6z M498.8,451.1c0.2,0.5-0.3,0.8-0.5,1l-1-2C498,450,498.3,450.8,498.8,451.1L498.8,451.1z M510.4,452.1l-1.5-1.5
		l0.5-0.5l1.5,1.5L510.4,452.1L510.4,452.1z M469.2,452.1c-1.3,0.1-4.4-0.3-3.5,1.5c-0.8-0.2-1,0.7-1.5,1l-0.5-1.5
		c-0.2-1.1,0.1,1,1,0.5l1-1c-0.3-0.3-0.6-0.7-1-0.5c0.5-2.7,3-0.8,4.5-1V452.1L469.2,452.1z M363,453.7l2.5-2.5h1L363,453.7
		L363,453.7z M462.1,453.7l-1,2c-0.8-0.2-1.5-0.3-2-1c0.4-0.4,2.6,0.4,2-1.5C461.5,453,461.8,453.4,462.1,453.7L462.1,453.7z
		 M477.7,455.7l-1.5,1.5l-1.5-1.5l-0.5,0.5l-2-2c-0.7,0.3-0.5,0.9-0.5,1.5l1,1c-1.7,0-1,2.4-3,1.5l1.5-1c-1.4-2-2.2,0.8-3.5-0.5
		c2.4,1.8,1.8-3.7,4-2c0.9-0.8,3.9-0.8,5.5,0C477.4,454.9,477.9,455.2,477.7,455.7L477.7,455.7z M483.2,458.2
		c-0.9-0.8-2.6-3.3-0.5-4.5L483.2,458.2L483.2,458.2z M367,455.7c-1.4,2-2.3-1.8-3.5,0v-0.5L367,455.7L367,455.7z M501.3,457.2
		c-0.5,0.2-0.8-0.2-1-0.5l2-1C502.5,456.4,501.7,456.7,501.3,457.2L501.3,457.2z M584.3,456.7c0.2,1.8-1.8,0.5-2.5,1.5l1-2.5
		C583.3,456,583.6,456.8,584.3,456.7L584.3,456.7z M578.3,458.7c0.5,2.1,2.6,3.2,1.5,5c1.1-1.6-1.7-3.8-2.5-5H578.3L578.3,458.7z
		 M580.8,459.7h1.5H580.8L580.8,459.7z M576.7,462.2l-2.5,3c0.8,1.9,2.4,0.4,3.5,0.5c-1.3,0.2-3.2,1.8-4,0c-0.9-0.3-0.3-2-0.5-3l1-1
		l-1.5-1C574.3,462.5,576.1,459.1,576.7,462.2L576.7,462.2z M362,462.7l-1.5-1.5l2.5,0.5L362,462.7L362,462.7z M469.2,462.7l-1.5,1
		l-1-2C467.2,462.6,468.1,462.9,469.2,462.7L469.2,462.7z M335.9,468.2c-7,4.1-15.1,9.2-22.6,11.6c6.7-4.5,14.3-7.1,21.1-11.6H335.9
		L335.9,468.2z M356,472.8l0.5-0.5l-3.5-1c1.1-0.9,5.1-0.3,6-0.5L356,472.8L356,472.8z M351.4,471.8c0.2,0.8-0.7,1-1,1.5l-0.5-0.5
		C349.8,472.2,350.8,471.8,351.4,471.8L351.4,471.8z M356,475.3c0.2,0.5-0.2,0.8-0.5,1l2.5,1c0.1,1.3-1.3,1-2,1.5l-1-1l1-1l-1.5-2
		l-1,1c-1.3-0.2,0.3-1.3,0.5-2C356.3,473.8,353.4,475.9,356,475.3L356,475.3z M492.3,475.8c-0.7,0.3-0.5,0.9-0.5,1.5l-0.5-1.5H492.3
		L492.3,475.8z M330.3,477.3c-1.8,1.6-1.7,5.9-3,7.5c0.9,0.6-0.2,1.4-0.5,2c0.2-1.3-0.6-3.2,1-4c1.5-1.9-0.2-5.1,2-6.5
		C330.1,476.6,330.5,476.9,330.3,477.3L330.3,477.3z M493.8,480.8l-1-1l-1,1l0.5,0.5c-0.6,0.9-1.7,0.3-2.5,0.5c0.9,0.3,1.4-0.4,2-1
		c0.2-0.7-0.7-1-1-1.5c1.3,0.4,1.7-1,3-0.5V480.8L493.8,480.8z M334.3,479.8c-0.6,0.6-1.1,1.3-2,1v-1.5
		C333,479.5,334,478.9,334.3,479.8L334.3,479.8z M344.9,482.3l-1.5-2l1.5,1.5V482.3L344.9,482.3z M361.5,482.3l-1,1l-1.5-3
		C361.8,479.1,359.8,482.4,361.5,482.3L361.5,482.3z M572.7,482.8l-0.5,0.5c0.2-0.4-0.2-0.7-0.5-1l-1.5,2c0.9,2,3.4,0.3,4.5,1.5
		c-0.7-0.2-1,0.7-1.5,1c0.5-0.6-2.2-0.5-3,0.5h-1.5c0.1-1.2,3-2.4,0.5-3.5v-1c0.7-0.2,1.7,0.4,2-0.5l-2-2
		C571.1,480.9,571.5,481.1,572.7,482.8L572.7,482.8z M330.8,480.8c-0.2,0.7,0.4,1.7-0.5,2v-2H330.8L330.8,480.8z M356.5,482.8
		c-0.8,0.5-1.3,2.1-2.5,1.5c0-0.9-2.1-1.7-1-2.5C353.6,483.4,355.2,482.7,356.5,482.8L356.5,482.8z M345.9,485.3l-0.5,0.5
		c-0.5-0.3-0.8-1.2-1.5-1l-0.5,0.5l-1.5-1.5C343.4,485.4,344.8,482.7,345.9,485.3L345.9,485.3z M594.8,485.3
		c-8.6,9-18.2,18-27.6,26.1c0.1-3.5-4.7-4-5.5-6.5c0.3-0.9,1.3-1.7,2-2.5l-0.5-0.5c1.5-0.6,3.6-2.7,3-5l-1.5-1c5.9,1.8-1.1-5.5,4-2
		l1-1l-0.5-0.5c1.9-2.4,3,2.7,4.5-0.5v1c0.7,0.7,1.9-0.1,2.5-1l-1-1c4.2-2.5,10.1-3.1,15.1-4.5C591.8,486,593.1,484.9,594.8,485.3
		L594.8,485.3z M408.2,489.4c-0.6,0-1.2,0.2-1.5-0.5c-0.7-1.7,1.4-1.2,2-2C410.2,488.2,408.3,488,408.2,489.4L408.2,489.4z
		 M488.3,487.3c-2.3-0.2,0.3,0.4,0.5-0.5L488.3,487.3L488.3,487.3z M350.9,487.8c-0.3,0.9-1.3,0.3-2,0.5
		C349,487.9,350.5,487.1,350.9,487.8L350.9,487.8z M359,488.8c-0.3,0.9-1.3,0.3-2,0.5l1-2C358.3,487.8,359.1,488.2,359,488.8
		L359,488.8z M354.5,488.8l0.5-0.5c1.3,1-1.1,4.2,2.5,3.5c-0.9,1.9-3.6,1.8-5,3.5c0.1-1.1,0.8-3.8,3-4.5c-0.9-2.4-2,0.4-3.5-0.5v-2
		C351.1,488.9,353.7,490,354.5,488.8L354.5,488.8z M362.5,492.4c0.3,0.3,0.5,0.7,1,0.5v0.5h-2c0.8-0.6-0.8-1.7,1-2h1L362.5,492.4
		L362.5,492.4z M476.7,494.4c-1.3-0.8,0.3-1.7,0.5-2.5C478.5,492.7,476.9,493.5,476.7,494.4L476.7,494.4z M336.9,492.9
		c1.1,3.2-3.9,4.2-5,6.5c-5.7,2.1-8.6,7.5-14.1,10.1c-6.2,5-12.2,8.4-17.7,14.2l18.7,2.5c9.3-3.2,17.9-7.9,26.6-12.7l-1.5-1.5
		l0.5-0.5c2.9,4.2,6.7-1.6,10.1-2.5c3.6-0.3,5.7-8.8,9.6-4c-3.2,5-9,5.9-13.1,9.6c-9,3.8-17.5,8.5-26.1,13.2
		c11.8,2.3,22.1,11.6,24.6,23.6c1.7,5.7-0.4,12.3-4,17.1c-9.8,9.1-22.4,14.4-36.2,10.6c-2.8-1.9-7-3.8-6-8c1.5-2,2.8-4.7,5.5-5l1,1
		c-3.4,1-3.5,4.9-2.5,7.5c10.6,6.4,24.4,1.8,33.2-5.5c4.9-6.1,3.7-14.2,2.5-21.6c-2.9-9.6-12.2-15.5-21.1-18.1
		c-11-0.7-19.3,3.3-29.7,5.5c-1.6,2.8-6.3,0.6-9.1,2c-6.8,2.8-13.2,6.6-19.1,11.6c-5.6,2.6-9.1,6.9-14.6,10
		c-1.9-0.3-2.6,2.7-4.5,2.5c-0.5-0.6-1.3-1.1-1-2c10-7,20.1-14.1,30.2-21.1c-2.4-1.6-5.8-0.8-7.5-4c2.1-7.2,10.4-8.2,16.6-9.6
		c15.8,2.8,24.9-13.6,37.3-20.7C326.2,501,331.1,495.9,336.9,492.9L336.9,492.9z M361,494.9l-3,1l0.5,0.5l-1.5,1
		c-0.2-0.7,0.7-1,1-1.5l-1-1C358,494.1,360,494.1,361,494.9L361,494.9z M555.1,507.9c-0.5,2.2,2,1.4,3,2l-0.5,1.5
		c0.1,1.2-0.6-3.6-2.5-0.5c0.2-0.7-0.7-1-1-1.5h-2.5c-5.3,3.4-7.4,11.3-13.6,12.7c0.8-3.8,5.9-7.6,2.5-11.2H539L524,525.1v-2
		c4.5-7.6,9.1-15.2,13.6-22.7c7-3,14.5-4.6,22.1-6C561.7,501.2,547.4,501.8,555.1,507.9L555.1,507.9z M343.9,499.4h-1l1-2.5
		C344.2,497.9,345.5,498.7,343.9,499.4L343.9,499.4z M368.5,498.4v0.5l-2.5-1l1-1C368.1,497.1,366.3,499,368.5,498.4L368.5,498.4z
		 M361.5,498.9c-0.6,0.8-1.5,0.7-2,1.5c-1.3-0.2,0.3-1.3,0.5-2C360.6,498.5,361.2,498.3,361.5,498.9L361.5,498.9z M346.9,501.4
		l-2.5-1l2.5,0.5V501.4L346.9,501.4z M363,502.4c-0.5,0-0.9-1.5-2-1l-0.5,0.5l-0.5-0.5l2-1L363,502.4L363,502.4z M552.1,503.9
		c-1,1.2-2.7,2.2-4,1c-2.1-1.2-0.4-3.3,0.5-4.5C548.6,503.3,552.7,500.7,552.1,503.9L552.1,503.9z M346.9,503.9l-0.5-0.5
		c0.5-0.7,1.3-0.8,2-1L346.9,503.9L346.9,503.9z M524.5,503.4c-7.4,8-15.2,16.1-23.1,24.7c0-3.1,4.2-6.5,5.5-10.1
		c-0.7-0.6-0.7-1.4-1.5-2c-2.9-0.4-2.9,2.9-5,4c-1.4-1.7-3.4-3.4-5.5-2c-0.8,1.1-1.9,1.6-3,1.5c0.1-1-0.1-1.8-1-2.5h-1.5
		c-5.5,5.9-11.3,10.8-17.6,14.7l-5-5.5c3.3-3.7,5.4-9.2,10-11.2c11-0.8,20.4-6.5,31.2-6.5C512.4,505.4,518.6,504.3,524.5,503.4
		L524.5,503.4z M429.4,504.9v0.5h-1.5v-1C428.2,505.1,428.9,504.9,429.4,504.9L429.4,504.9z M367,506.4c-0.5,0.9-1.7,0.4-2.5,0.5v-1
		C365.3,506.1,366.5,505.6,367,506.4L367,506.4z M559.6,507.4c-0.4,0.2-0.7-0.2-1-0.5l2-1C560.9,506.7,560,506.9,559.6,507.4
		L559.6,507.4z M440.9,508.5c-0.5,11.6-11.7,17.5-18.1,26.7c-10.2,9-20.4,19.6-32.2,24.1c-1.3-0.1-3.4,0.3-3.5-1.5
		c0.6-8.5,2.2-15.8,7-23.1l3.5-5.5c13.4-9,26.5-18.5,42.2-21.7L440.9,508.5L440.9,508.5z M468.7,509c-1,2.2-3.9,3.9-6,5
		c-4.9,2-12.3,1.2-14.1,7.6c0.6,0.6,1,1.3,2,1.1c1.3-4.4,6-3.1,9.1-4.6c-2.5,2.5-7.1,2.9-7.5,7.1l-16.2,14.6
		c3.9-10.8,10-21.7,19.7-29.2C459.6,510.7,464.5,510.2,468.7,509L468.7,509z M555.6,513.5c-1.6,0-1.2,2.2-2,2.5v-2.5H555.6
		L555.6,513.5z M551.1,519l-0.5-0.5c0.6-0.5,1.1-1.2,2-1L551.1,519L551.1,519z M483.2,535.2c2-5.8,6.4-12.3,12.6-14.7
		C494.4,526.4,487.9,530.5,483.2,535.2L483.2,535.2z M514.9,522.6c-0.7-0.2-1.7,0.3-2-0.5l2-1.1V522.6L514.9,522.6z M555.6,525.1
		c-0.8,0.3-1.3,1.3-2.5,1C553,524.5,555.2,525,555.6,525.1L555.6,525.1z M508.9,528.6l1.5-2.5v1L508.9,528.6L508.9,528.6z
		 M288.5,526.6c-5.7,3.3-10.9,10.9-18.6,6.5c0.8-2.3,3.8-3.8,6-4.5C279.8,527.2,284.4,527.2,288.5,526.6L288.5,526.6z M310.2,527.6
		c-6.6,2.1-14.1,1.9-20.7,4c2.4-1.2,4.6-2.8,6.5-5L310.2,527.6L310.2,527.6z M552.1,529.2l-0.5,0.5l-2.5-2l1-1
		C549.9,527.6,551.1,527.8,552.1,529.2L552.1,529.2z M470.2,533.7l-12.1,8.6c2.5-4.7,3.9-9.9,7.5-14.1
		C465.7,530.5,469.3,531.5,470.2,533.7L470.2,533.7z M505.9,529.7l-1.5,2.5L505.9,529.7L505.9,529.7z M550.1,534.2
		c-0.5,0.9-1.4-0.2-2-0.5l1.5-1.5C550.5,532,549.9,533.5,550.1,534.2L550.1,534.2z M549.1,536.7l-1,1c-0.3-0.7-1.4-1.5-0.5-2
		C548.1,536,548.4,536.9,549.1,536.7L549.1,536.7z M366,539.7l-1-2l1.5,1.5L366,539.7L366,539.7z M383.1,539.2l-1,2.5L383.1,539.2
		L383.1,539.2z M548.1,540.2c0.2,1.8-1.9,0.3-2.5,1.5c0.3,0.3,0.7,0.5,0.5,1c-0.4,0.2-0.7-0.3-1-0.5c1.3-0.7,0.2-1.3,1-2H548.1
		L548.1,540.2z M481.7,543.7c-0.3,0.6-1,0.4-1.5,0.5v-2C480.8,542.6,482.2,542.3,481.7,543.7L481.7,543.7z M487.8,549.8l-1,1
		c0.2-1.5-1.8-2.8-2.5-3l0.5-0.5c-0.4-1.9-3.2-0.2-2.5-2.5C485.8,544.3,485.2,548.8,487.8,549.8L487.8,549.8z M372,550.8l-0.5-2
		l1,1.5L372,550.8L372,550.8z M497.3,561.3c2.3-0.2,0.5,3.2,3,2.5v1.5c-0.8,0.2-1-0.7-1.5-1l0.5-0.5c-4.3-3.1-7.6-7.5-10.6-11.6
		l0.5-0.5C492.4,554.7,495.2,557.9,497.3,561.3L497.3,561.3z M371,555.3h-1.5v-1.5C369.9,554.5,371.3,554.1,371,555.3L371,555.3z
		 M436.4,560.3c2.7,3.2,3.2,8,3.5,11.6c0.5,0.7,1.6,1.1,1.5,2c-1.4,0.8,0.7,3.9-1.5,5c-1.3-1.9-1.8-4.1-1.5-6.5h-1
		c0-0.9,0.8-3.9-1.5-4l1.5-1l-2-1l0.5-10.6C435.9,556.9,438.2,559.2,436.4,560.3L436.4,560.3z"/>
</g>
</svg>
